<svg width="1872" height="627" viewBox="0 0 1872 627" xmlns="http://www.w3.org/2000/svg" xmlns:xlink="http://www.w3.org/1999/xlink">
    <defs>
        <path id="a" d="M0 0h238.172v419.177H0z"/>
    </defs>
    <g fill="none" fill-rule="evenodd">
        <path d="M0 0h1872v627H0z"/>
        <path d="M77.26 410.393c0 75.317 44.919 149.755 132.84 149.755 95.813 0 135.094-62.673 135.094-153.068 0-89.842-31.307-150.262-132.38-150.262-91.343 0-135.553 76.172-135.553 153.575zM417.198 6.199V494.06c0 39.27 0 79.344.792 118.613h-72.795c-2.128-17.366-2.923-41.993-3.172-62.288-20.284 34.771-54.557 73.58-147.6 73.58C78.3 623.965 0 535.705 0 411.962c0-134.228 99.335-218.71 203.854-218.71 94.299 0 126.815 43.526 138.168 63.016V6.198h75.175zM1514.453 372.025c-3.464-48.663-28.848-119.32-128.294-119.32-82.405 0-122.822 52.352-129.794 119.32h258.088zM1254.778 426.3c4.258 78.6 56.32 136.178 137.855 136.178 62.829 0 97.564-26.158 119.19-65.86h74.926c-21.577 60.611-78.258 127.347-198.168 127.347-143.567 0-209.018-106.805-209.018-214.125 0-123.327 80.727-216.589 207.14-216.589 152.303 0 205.89 113.52 205.89 212.976 0 6.877 0 12.181-.25 20.073h-337.565z" fill="#000"/>
        <g transform="translate(1633.828 193.496)">
            <mask id="b" fill="#fff">
                <use xlink:href="#a"/>
            </mask>
            <path d="M.792 122.018c0-36.806 0-74.162-.792-110.968h72.837c1.294 12.012 2.879 54.928 2.879 91.957C101.723 40.385 159.873-.753 238.173.01v72.985C145.926 71.933 75.716 128.45 75.716 248.677v170.5H.792v-297.16z" fill="#000" mask="url(#b)"/>
        </g>
        <path d="M1021.211 264.717v347.959h75.175v-347.96h93.88v-60.17h-93.88v-51.04c0-66.203 15.738-89.853 69.51-89.853 10.101 0 25.341 1.104 36.029 3.566V4.586C1191.157 1.358 1174.339 0 1154.51 0c-93.489 0-133.3 56.89-133.3 149.343v55.203H852.568v-51.04c0-66.203 15.738-89.853 69.509-89.853 10.102 0 25.342 1.104 36.03 3.566V4.586C947.338 1.358 930.52 0 910.692 0c-93.489 0-133.3 56.89-133.3 149.343v463.333h75.175v-347.96h168.643z" fill="#000"/>
        <path d="M711.451 303.8c-5.628 0-10.79-3.73-12.364-9.416-12.91-46.706-7.19-92.804-1.656-137.38 2.224-17.91 4.521-36.428 5.514-54.504 1.91-34.883-3.59-59.641-15.487-69.717-6.863-5.81-16.562-7.206-29.651-4.28-30.041 6.729-48.83 40.61-55.85 100.708-6.173 52.867-.78 110.634 1.845 133.15.844 6.59-3.515 12.845-10.124 14.214-6.937 1.434-13.724-2.996-15.162-9.935a15.025 15.025 0 0 1-.191-1.175c-2.723-23.32-8.36-83.576-1.86-139.233C584.888 54.134 610.368 12.826 652.2 3.459c21.175-4.744 38.614-1.465 51.844 9.74C722.748 29.036 731 59.553 728.57 103.903c-1.038 18.96-3.39 37.922-5.668 56.26-5.467 44.023-10.627 85.604.926 127.379 1.886 6.832-2.121 13.9-8.951 15.79a12.854 12.854 0 0 1-3.426.467" fill="#0AC2DF"/>
        <path d="M512.027 357.506c-5.02 0-9.788-2.967-11.845-7.889-11.96-28.63-15.277-55.894-15.798-60.81-.218-1.133-.572-3.216-.85-6.035-.02-.147-.036-.291-.052-.434-2.838-28.816 7.82-61.593 46.245-67.163 32.93-4.81 56.796 9.359 72.933 43.29.091.192.176.386.258.58 5.412 11.46 10.292 25.709 15.336 44.768 1.812 6.852-2.273 13.876-9.125 15.69-6.847 1.81-13.877-2.273-15.69-9.125-4.7-17.77-9.129-30.738-13.935-40.81a11.615 11.615 0 0 1-.256-.566c-11.203-23.294-24.504-31.528-45.828-28.427-12.664 1.836-27.14 10.08-24.429 38.89.022.164.038.322.053.478.248 2.605.58 4.187.581 4.203.105.492.196 1.06.24 1.558.025.25 2.637 26.822 13.998 54.018 2.734 6.538-.354 14.056-6.892 16.79a12.867 12.867 0 0 1-4.944.994" fill="#0AC2DF"/>
        <path d="M506.086 469.22c-28.38 0-52.52-23.564-64.54-37.849a12.102 12.102 0 0 1-.544-.69c-10.411-12.437-19.242-27.167-26.257-43.796-10.097-23.934-18.846-59.082-3.179-90.59 9.882-19.868 25.026-33.158 42.643-37.418 16.516-3.994 33.683.113 49.653 11.874a12.818 12.818 0 0 1 4.866 7.321c1.663 6.89-2.566 13.853-9.456 15.518a12.84 12.84 0 0 1-11.3-2.66c-9.452-6.756-19.026-9.21-27.73-7.106-10.122 2.447-19.247 10.935-25.693 23.897-11.336 22.791-4.165 50.205 3.844 69.187 6.126 14.525 13.78 27.256 22.746 37.84.194.228.376.46.552.7 15.436 18.134 32.383 28.601 45.432 28.085 17.415-.713 24.946-16.55 26.101-29.89.327-3.775.488-7.253.612-10.445.276-7.081 6.3-12.62 13.323-12.323 7.084.278 12.6 6.24 12.324 13.323-.136 3.508-.314 7.35-.688 11.66-2.624 30.281-23.443 52.204-50.623 53.317-.697.029-1.392.044-2.086.044" fill="#0AC2DF"/>
        <path d="M684.912 550.276a12.818 12.818 0 0 1-10.387-5.283c-4.17-5.73-2.907-13.757 2.825-17.929 33.487-24.369 59.92-56.745 74.431-91.162 15.8-37.474 11.229-69.131-15.78-109.265-13.19-19.599-24.018-25.29-44.569-23.439-11.39 1.029-22.653 4.283-34.578 7.727-16.226 4.69-32.995 9.49-51.387 8.998-5.04-.187-10.24-.581-15.742-1-15.545-1.184-33.165-2.52-46.007 1.24-8.588 2.516-17.55 7.509-18.897 25.467-.886 11.671 5.331 24.656 18.479 38.604 8.245 8.664 19.91 15.245 32.803 18.486 48.943 12.426 112.845-16.01 113.484-16.3 6.458-2.911 14.057-.046 16.976 6.407 2.918 6.453.062 14.049-6.391 16.974-2.939 1.331-72.63 32.452-130.353 17.804-17.515-4.405-33.56-13.541-45.152-25.72-18.352-19.467-26.895-39.028-25.44-58.188 1.87-24.912 14.762-41.572 37.279-48.165 17.332-5.078 37.433-3.549 55.162-2.202 5.249.4 10.207.777 14.652.942 14.296.387 28.425-3.669 43.409-8.003 12.564-3.63 25.555-7.384 39.4-8.633 30.022-2.709 49.768 7.335 68.164 34.671 31.655 47.042 37.249 88.236 18.136 133.568-16.3 38.658-45.766 74.86-82.975 101.943a12.788 12.788 0 0 1-7.542 2.458" fill="#0AC2DF"/>
        <path d="M597.445 538.823c-2.785 0-5.59-.901-7.945-2.762-13.194-10.42-23.36-26.8-30.224-48.682-11.092-35.397-3.642-63.426 1.786-76.983 2.633-6.578 10.1-9.781 16.682-7.143 6.58 2.633 9.779 10.104 7.143 16.682-4.158 10.387-9.835 31.964-1.12 59.764 6.588 21.014 15.403 31.296 21.64 36.222 5.561 4.393 6.51 12.464 2.115 18.025a12.807 12.807 0 0 1-10.077 4.877" fill="#0AC2DF"/>
        <path d="M598.99 575.35c-23.046 0-50.367-3.92-88.164-22.95-27.688-13.937-45.85-33.146-57.163-60.455-8.143-19.661-13.076-41.788-15.08-67.644-.594-6.3 3.528-12.246 9.855-13.724 6.912-1.594 13.795 2.649 15.407 9.55.147.637.262 1.349.314 1.999 1.778 23.202 6.103 42.825 13.216 59.997 8.822 21.295 23.118 36.341 44.989 47.354 45.256 22.783 71.183 21.072 98.611 19.248 1.874-.124 3.744-.247 5.614-.362 7.035-.383 13.165 4.942 13.604 12.014.436 7.074-4.942 13.165-12.017 13.603-1.836.114-3.668.234-5.505.357-7.526.498-15.324 1.012-23.68 1.012" fill="#0AC2DF"/>
        <path d="M609.699 626.452c-27.612 0-53.856-6.672-77.165-19.955-7.776-4.419-13.499-11.69-16.099-20.46l-12.154-41.492c-1.995-6.8 1.905-13.93 8.708-15.92 6.785-1.991 13.926 1.902 15.921 8.708l12.141 41.447c.697 2.34 2.184 4.276 4.176 5.412 35.96 20.49 80.836 22.02 126.375 4.314 42.133-16.384 80.103-47.892 101.565-84.282 1.462-2.455 1.77-5.452.846-8.065l-20.351-57.057c-2.38-6.674 1.1-14.017 7.776-16.397 6.673-2.382 14.015 1.1 16.397 7.776l20.37 57.1a35.108 35.108 0 0 1-2.96 29.732c-24.262 41.136-67.018 76.711-114.345 95.112-24.077 9.363-48.119 14.027-71.201 14.027" fill="#0AC2DF"/>
    </g>
</svg>
