<svg width="1872" height="627" viewBox="0 0 1872 627" xmlns="http://www.w3.org/2000/svg" xmlns:xlink="http://www.w3.org/1999/xlink">
    <defs>
        <path d="M478.963 318.752h19.154c30.546-50.496 65.94-93.226 89.94-93.226 6.304 0 10.427 3.157 10.427 13.597 0 11.166-11.153 44.183-20.85 70.647l-68.607 194.705c-11.393 32.046-20.124 51.467-20.124 69.919 0 28.887 14.302 51.467 56.974 51.467 65.696 0 118.063-81.085 146.91-152.705h-18.425c-26.423 58.51-62.546 109.247-92.364 109.247-11.396 0-14.546-6.31-14.546-18.45 0-11.166 10.666-39.33 16.97-57.05l69.821-195.434c12.847-35.444 23.271-63.608 23.271-84.485 0-23.307-13.817-44.185-42.667-44.185-58.668 0-119.033 64.336-155.884 135.953z" id="iu4dsp29oa"/>
    </defs>
    <g fill="none" fill-rule="evenodd">
        <path d="M0 0h1872v627H0z"/>
        <g fill="#000">
            <path d="M77.26 410.393c0 75.317 44.919 149.755 132.84 149.755 95.813 0 135.094-62.673 135.094-153.067 0-89.843-31.307-150.263-132.38-150.263-91.343 0-135.553 76.172-135.553 153.575zM417.198 6.199v487.863c0 39.269 0 79.343.792 118.613h-72.795c-2.128-17.368-2.923-41.993-3.172-62.288-20.284 34.769-54.557 73.579-147.6 73.579C78.3 623.966 0 535.706 0 411.962c0-134.228 99.335-218.708 203.854-218.708 94.3 0 126.815 43.524 138.168 63.014V6.198h75.175zM1514.453 372.025c-3.464-48.662-28.85-119.32-128.293-119.32-82.406 0-122.822 52.353-129.794 119.32h258.087zm-259.675 54.276c4.259 78.601 56.32 136.179 137.855 136.179 62.829 0 97.565-26.159 119.191-65.861h74.923c-21.575 60.612-78.255 127.347-198.165 127.347-143.567 0-209.02-106.805-209.02-214.124 0-123.33 80.728-216.59 207.14-216.59 152.305 0 205.891 113.52 205.891 212.977 0 6.876 0 12.18-.25 20.072h-337.565zM1634.622 315.514c0-36.806 0-74.162-.793-110.968h72.838c1.293 12.01 2.878 54.928 2.878 91.957 26.007-62.622 84.157-103.76 162.455-102.996v72.984c-92.244-1.062-162.455 55.456-162.455 175.682v170.5h-74.923v-297.16zM1021.212 264.717v347.959h75.175v-347.96h93.88v-60.17h-93.88v-51.04c0-66.203 15.738-89.853 69.51-89.853 10.101 0 25.34 1.104 36.028 3.568V4.586C1191.158 1.358 1174.34 0 1154.512 0c-93.489 0-133.3 56.89-133.3 149.343v55.203H852.568v-51.04c0-66.203 15.739-89.853 69.508-89.853 10.104 0 25.341 1.104 36.03 3.568V4.586C947.34 1.358 930.52 0 910.695 0c-93.49 0-133.3 56.89-133.3 149.343v463.333h75.174v-347.96h168.644z"/>
            <use xlink:href="#iu4dsp29oa"/>
            <path d="M628.788 52.428c0 28.427 23.01 51.467 51.393 51.467 28.385 0 51.396-23.04 51.396-51.467 0-28.425-23.01-51.469-51.396-51.469-28.382 0-51.393 23.044-51.393 51.47z"/>
        </g>
    </g>
</svg>
