<svg width="1872" height="627" viewBox="0 0 1872 627" xmlns="http://www.w3.org/2000/svg" xmlns:xlink="http://www.w3.org/1999/xlink">
    <defs>
        <path id="a" d="M0 0h238.172v419.177H0z"/>
    </defs>
    <g fill="none" fill-rule="evenodd">
        <path d="M0 0h1872v627H0z"/>
        <path d="M77.26 410.393c0 75.317 44.919 149.755 132.84 149.755 95.813 0 135.094-62.673 135.094-153.068 0-89.842-31.307-150.263-132.38-150.263-91.343 0-135.553 76.173-135.553 153.576zM417.198 6.198V494.06c0 39.27 0 79.344.792 118.615h-72.795c-2.128-17.368-2.923-41.993-3.172-62.29-20.284 34.77-54.557 73.58-147.6 73.58C78.3 623.965 0 535.705 0 411.962c0-134.228 99.335-218.71 203.854-218.71 94.299 0 126.815 43.526 138.168 63.016V6.198h75.175zM1514.453 372.025c-3.464-48.663-28.848-119.32-128.294-119.32-82.405 0-122.822 52.352-129.794 119.32h258.088zM1254.778 426.3c4.258 78.6 56.32 136.178 137.855 136.178 62.829 0 97.564-26.158 119.19-65.86h74.926c-21.577 60.611-78.258 127.347-198.168 127.347-143.567 0-209.018-106.805-209.018-214.125 0-123.327 80.727-216.589 207.14-216.589 152.303 0 205.89 113.52 205.89 212.976 0 6.877 0 12.181-.25 20.073h-337.565z" fill="#000"/>
        <g transform="translate(1633.828 193.496)">
            <mask id="b" fill="#fff">
                <use xlink:href="#a"/>
            </mask>
            <path d="M.792 122.018c0-36.806 0-74.162-.792-110.968h72.837c1.294 12.012 2.879 54.928 2.879 91.957C101.723 40.385 159.873-.753 238.173.01v72.985C145.926 71.933 75.716 128.45 75.716 248.677v170.5H.792v-297.16z" fill="#000" mask="url(#b)"/>
        </g>
        <path d="M1021.211 264.717v347.957h75.175V264.717h93.88v-60.171h-93.88v-51.04c0-66.203 15.738-89.853 69.51-89.853 10.101 0 25.341 1.104 36.029 3.566V4.586C1191.157 1.358 1174.339 0 1154.51 0c-93.489 0-133.3 56.89-133.3 149.343v55.203H852.568v-51.04c0-66.203 15.738-89.853 69.509-89.853 10.102 0 25.342 1.104 36.03 3.566V4.586C947.338 1.358 930.52 0 910.692 0c-93.489 0-133.3 56.89-133.3 149.343v463.33h75.175V264.718h168.643z" fill="#000"/>
        <path d="M733.589 285.842c-.078 3.227-1.672 40.8-1.899 40.806-4.684.116-9.423-2.663-13.94-3.727-12.506-2.942-25.898-2.11-38.224 1.292-17.172 4.739-32.596 14.442-46.166 25.78-25.694 21.466-45.84 48.96-64.296 76.655 1.375-2.066-23.056-25.582-24.58-27.163-25.674-26.61-57.207-39.853-94.093-40.327.492-16.128 2.473-32.18 4.98-48.113 3.09-19.647 7.192-39.174 13.134-58.17 6.346-20.293 14.957-39.775 25.433-58.265 14.238-25.133 31.051-49.911 53.074-69.238 22.461-19.716 51.716-37.022 82.848-35.66 29.84 1.305 51.808 22.192 66.66 46.49 4.25 6.954 7.992 14.218 11.351 21.642 12.132 26.809 20.041 55.487 23.77 84.665 1.837 14.367 2.295 28.863 1.948 43.333m-24.585-209.19c-65.313-43.389-150.962-49.775-212.89 2.662-65.72 55.653-105.084 136.393-111.134 221.327-1.732 24.335-1.676 48.78-.514 73.14.46 9.665 1.108 19.32 1.876 28.965.38 4.789 3.562 15.94 1.743 20.354-20.32 49.338-15.115 108.855 23.056 148.228 8.944 9.227 19.122 17.368 30.373 23.614 5.683 3.157 11.646 5.821 17.837 7.811 6.206 1.993 12.615 2.765 18.913 4.355 15.242 3.848 30.048 10.184 45.893 11.19 13.554.862 26.68-3.657 38.65-9.666 5.415-2.72 10.793-5.74 15.72-9.285.225-.162 14.972 10.761 16.7 11.796 6.558 3.923 13.494 7.242 20.762 9.624 36.967 12.11 77.985-10.193 110.298-26.235 32.421-16.094 57.89-45.44 70.187-79.402 14.474-39.971 2.119-77.668 2.987-118.42.761-35.536 8.103-70.54 9.285-106.049 1.44-43.217-8.032-86.334-26.03-125.567-16.248-35.417-41.109-66.782-73.712-88.442" fill="#C192EF"/>
        <path d="M742.807 301.359c-.04 0-.078 0-.12-.005a1.276 1.276 0 0 1-1.153-1.389c1.427-15.556 1.124-32.539-.962-53.448-5.685-57.019-18.781-99.59-41.222-133.968a1.276 1.276 0 1 1 2.137-1.396c22.675 34.734 35.9 77.666 41.63 135.11 2.099 21.077 2.406 38.215.96 53.936a1.276 1.276 0 0 1-1.27 1.16M674.388 81.88c-.318 0-.632-.116-.882-.352-15.549-14.783-30.78-23.848-40.817-28.848a1.275 1.275 0 0 1-.574-1.712 1.275 1.275 0 0 1 1.711-.574c10.196 5.078 25.663 14.28 41.443 29.282.51.487.53 1.296.045 1.808-.252.262-.59.396-.926.396M645.951 560.408c-.545 0-1.05-.352-1.22-.9-2.522-8.12-3.5-16.964-2.907-26.291.044-.704.683-1.256 1.355-1.194.704.045 1.24.65 1.194 1.354-.572 9.015.37 17.552 2.798 25.375a1.276 1.276 0 0 1-1.22 1.656M654.962 496.224a1.28 1.28 0 0 1-1.2-1.716c7.573-20.659 20.538-35.974 34.264-52.19 2.938-3.472 5.904-6.976 8.84-10.564 20.894-25.538 34.106-52.607 38.202-78.28 2.301-14.42 4.075-28.445 5.28-41.68.064-.705.703-1.244 1.387-1.157a1.277 1.277 0 0 1 1.157 1.387c-1.209 13.294-2.992 27.374-5.302 41.855-4.168 26.116-17.566 53.606-38.745 79.493-2.948 3.6-5.922 7.115-8.869 10.599-13.575 16.036-26.397 31.185-33.814 51.413-.192.517-.681.84-1.2.84M745.344 442.717a1.278 1.278 0 0 1-.38-2.498c4.679-1.455 9.269-2.235 13.65-2.31.007-.002.015-.002.022-.002a1.277 1.277 0 0 1 .02 2.553c-4.134.076-8.486.815-12.931 2.2a1.328 1.328 0 0 1-.38.057" fill="#000"/>
        <path d="M704.407 586.002a1.25 1.25 0 0 1-.336-.047c-10.25-2.798-17.802-8.867-22.445-18.031-9.316-18.39-4.824-45.223 1.85-62.613 2.357-6.142 5.384-12.417 8.995-18.65 13.713-23.675 32.354-40.168 52.493-46.441a1.279 1.279 0 0 1 1.599.84 1.275 1.275 0 0 1-.837 1.597c-19.527 6.084-37.654 22.166-51.047 45.286-3.541 6.115-6.509 12.268-8.817 18.283-6.49 16.904-10.894 42.903-1.959 60.542 4.305 8.497 11.315 14.123 20.84 16.723a1.28 1.28 0 0 1 .898 1.569c-.158.568-.67.942-1.234.942" fill="#000"/>
        <path d="M724.573 483.434c-.343 0-.688-.138-.94-.414a1.275 1.275 0 0 1 .074-1.803c8.212-7.568 17.252-11.818 25.457-11.96.007-.003.016-.003.022-.003a1.277 1.277 0 0 1 .02 2.556c-7.575.133-16.018 4.143-23.767 11.286a1.28 1.28 0 0 1-.866.338M723.427 555.839c-3.796 0-7.275-.9-10.358-2.68-6.992-4.039-11.05-12.106-11.424-22.718a1.274 1.274 0 0 1 1.23-1.322c.695-.016 1.298.525 1.32 1.231.346 9.701 3.95 17.016 10.152 20.596 3.112 1.796 6.714 2.566 10.678 2.28a1.29 1.29 0 0 1 1.365 1.181 1.277 1.277 0 0 1-1.182 1.367c-.604.042-1.196.065-1.781.065" fill="#000"/>
        <path d="M734.631 553.382a1.27 1.27 0 0 1-1.175-.783 1.276 1.276 0 0 1 .679-1.672c9.815-4.136 19.282-13.16 25.98-24.76 5.977-10.348 9.074-21.512 8.724-31.431-.34-9.697-3.944-17.012-10.148-20.593-2.787-1.612-6.033-2.411-9.481-2.336-.01.003-.018.003-.025.003a1.277 1.277 0 0 1-.024-2.554c3.949-.098 7.61.828 10.807 2.674 6.993 4.038 11.05 12.107 11.425 22.717.367 10.391-2.854 22.04-9.065 32.8-6.97 12.069-16.885 21.487-27.2 25.833a1.271 1.271 0 0 1-.497.102M678.56 607.084h-.078c-12.224-.73-22.283-4.512-31.655-11.907-10.31-8.132-17.78-17.254-22.203-27.107-5.27-11.732-7.845-25.121-7.45-38.718 1.212-41.773 22.291-83.31 57.824-113.962 3.762-3.246 7.972-6.127 12.045-8.914 5.138-3.517 10.454-7.157 14.788-11.493 3.094-3.096 4.644-7.689 6.282-12.553.494-1.458.986-2.916 1.52-4.332.25-.661.985-.982 1.648-.743.659.249.993.986.743 1.647-.525 1.387-1.006 2.816-1.489 4.245-1.663 4.929-3.379 10.024-6.894 13.54-4.506 4.507-9.92 8.213-15.157 11.797-4.014 2.747-8.163 5.588-11.816 8.74-34.992 30.186-55.75 71.045-56.944 112.101-.383 13.216 2.117 26.217 7.228 37.596 4.257 9.477 11.476 18.277 21.458 26.152 8.942 7.055 18.545 10.663 30.223 11.358a1.278 1.278 0 0 1-.073 2.553M591.538 487.07a1.278 1.278 0 0 1-1.184-1.756 402.709 402.709 0 0 1 2.587-6.265c19.226-45.355 46.794-82.501 79.722-107.427 18.6-14.077 35.3-22.795 51.053-26.65a1.278 1.278 0 1 1 .608 2.482c-15.409 3.77-31.804 12.343-50.116 26.207-32.574 24.654-59.864 61.443-78.914 106.385a380.596 380.596 0 0 0-2.572 6.224 1.28 1.28 0 0 1-1.184.8M591.505 595.915c-.427 0-.845-.216-1.086-.604-18.17-29.235-13.232-68.153-5.888-95.654a1.285 1.285 0 0 1 1.565-.904 1.28 1.28 0 0 1 .906 1.565c-7.215 27.011-12.1 65.186 5.585 93.644a1.277 1.277 0 0 1-1.082 1.953" fill="#000"/>
        <path d="M577.936 591.695c-.356 0-.708-.15-.957-.445-7.175-8.582-13.199-18.252-17.9-28.746-18.212-40.663-13.775-90.254 11.58-129.422a1.24 1.24 0 0 1 1.725-.367c.579.374.744 1.146.367 1.723-24.9 38.467-29.268 87.147-11.397 127.05 4.608 10.281 10.507 19.758 17.54 28.161a1.247 1.247 0 0 1-.958 2.046" fill="#000"/>
        <path d="M533.125 542.328c-20.349 0-45.61-21.778-61.066-53.63-8.978-18.504-13.519-37.82-12.786-54.382.747-16.845 6.86-28.888 17.218-33.914 11.347-5.508 24.543-2.209 40.324 10.095 15.818 12.333 27.714 27.078 33.493 41.525a1.28 1.28 0 0 1-.714 1.661 1.287 1.287 0 0 1-1.661-.715c-5.61-14.028-17.221-28.398-32.688-40.456-14.935-11.643-27.252-14.857-37.638-9.81-9.475 4.596-15.078 15.862-15.781 31.728-.717 16.145 3.735 35.023 12.535 53.152 16.417 33.839 43.874 56.055 63.86 51.652a1.29 1.29 0 0 1 1.522.975 1.277 1.277 0 0 1-.975 1.52 26.163 26.163 0 0 1-5.643.599" fill="#000"/>
        <path d="M540.673 532.02c-.65 0-1.206-.497-1.269-1.16-4.305-45.502-25.789-72.35-43.054-86.86a1.278 1.278 0 0 1 1.642-1.957c17.63 14.817 39.571 42.213 43.954 88.578a1.275 1.275 0 0 1-1.273 1.398M484.538 435.028c-.233 0-.472-.065-.685-.2-12.35-7.874-22.014-10.732-22.112-10.761a1.276 1.276 0 0 1-.87-1.583 1.269 1.269 0 0 1 1.58-.868c.408.116 10.089 2.972 22.777 11.055a1.278 1.278 0 0 1-.69 2.357M536.342 578.015c-.144 0-.296-.027-.44-.08-44.023-16.193-81.954-55.722-104.068-108.46a214.21 214.21 0 0 1-4.801-12.512 183.76 183.76 0 0 1-1.73-5.223 1.277 1.277 0 1 1 2.44-.763c.54 1.723 1.11 3.441 1.703 5.146a213.58 213.58 0 0 0 4.744 12.366c21.842 52.082 59.236 91.103 102.593 107.05a1.276 1.276 0 0 1-.44 2.476M471.236 593.3a1.26 1.26 0 0 1-.699-.212c-28.598-18.844-46.26-36.708-59.053-59.741-3.756-6.766-7.25-13.971-10.38-21.415-5.76-13.695-9.339-26.037-10.946-37.728-1.648-11.99-.78-24.928 2.729-40.72a1.29 1.29 0 0 1 1.523-.972c.69.156 1.124.837.972 1.525-3.443 15.486-4.298 28.14-2.693 39.82 1.576 11.466 5.1 23.596 10.772 37.084 3.092 7.36 6.545 14.48 10.258 21.168 12.58 22.646 29.992 40.245 58.22 58.844a1.279 1.279 0 0 1-.703 2.346M400.917 404.817c-.239 0-.481-.067-.695-.21a1.276 1.276 0 0 1-.372-1.767c5.77-8.853 12.324-17.016 19.479-24.26a1.278 1.278 0 0 1 1.816 1.797c-7.032 7.121-13.479 15.149-19.158 23.86a1.274 1.274 0 0 1-1.07.58M420.19 419.765a1.276 1.276 0 0 1-1.273-1.204c-.743-12.852.575-36.441 17.755-50.047a42.08 42.08 0 0 1 2.273-1.676c2.155-1.483 4.78-2.794 7.805-3.903a1.277 1.277 0 1 1 .877 2.4c-2.823 1.033-5.256 2.246-7.233 3.604a41.835 41.835 0 0 0-2.134 1.576c-16.277 12.89-17.506 35.542-16.792 47.899a1.279 1.279 0 0 1-1.202 1.349l-.075.002M447.23 336.846c-.194 0-.388-.045-.572-.136-11.51-5.755-45.548-10.639-45.891-10.685a1.279 1.279 0 0 1-1.084-1.447 1.29 1.29 0 0 1 1.444-1.085c1.416.203 34.794 4.991 46.675 10.93.63.319.886 1.085.572 1.717a1.28 1.28 0 0 1-1.144.706" fill="#000"/>
        <path d="M394.132 397.57a1.276 1.276 0 0 1-1.273-1.207l-.14-2.516c-1.31-23.46-2.66-47.718-.341-71.544 4.761-48.931 17.604-96.427 38.173-141.17 18.977-41.27 46.115-74.152 80.666-97.729 40.807-27.846 88.676-31.626 124.924-9.863a95.191 95.191 0 0 1 7.41 4.937 1.278 1.278 0 0 1-1.518 2.057 92.288 92.288 0 0 0-7.206-4.804c-35.386-21.243-82.196-17.495-122.172 9.784-34.161 23.311-61.003 55.841-79.782 96.685-20.45 44.484-33.22 91.704-37.953 140.353-2.3 23.627-.953 47.79.35 71.154l.14 2.513a1.28 1.28 0 0 1-1.205 1.35h-.073" fill="#000"/>
    </g>
</svg>
