<svg width="1872" height="627" viewBox="0 0 1872 627" xmlns="http://www.w3.org/2000/svg">
    <g fill="none" fill-rule="evenodd">
        <path d="M0 0h1872v627H0z"/>
        <path d="M77.26 410.393c0 75.317 44.919 149.755 132.84 149.755 95.813 0 135.094-62.673 135.094-153.068 0-89.842-31.307-150.263-132.38-150.263-91.343 0-135.553 76.173-135.553 153.576zM417.198 6.198V494.06c0 39.27 0 79.344.793 118.615h-72.796c-2.128-17.368-2.922-41.993-3.172-62.29-20.284 34.771-54.557 73.58-147.6 73.58C78.3 623.965 0 535.705 0 411.962c0-134.228 99.335-218.71 203.854-218.71 94.301 0 126.815 43.526 138.168 63.016V6.198h75.175zM1514.453 372.025c-3.463-48.663-28.848-119.32-128.293-119.32-82.406 0-122.822 52.352-129.794 119.32h258.087zM1254.778 426.3c4.259 78.6 56.32 136.179 137.855 136.179 62.83 0 97.565-26.16 119.191-65.861h74.926c-21.578 60.611-78.258 127.347-198.168 127.347-143.567 0-209.018-106.805-209.018-214.125 0-123.327 80.726-216.589 207.139-216.589 152.304 0 205.89 113.52 205.89 212.976 0 6.877 0 12.182-.249 20.073h-337.566zM1634.622 315.513c0-36.806 0-74.162-.793-110.968h72.838c1.293 12.012 2.878 54.929 2.878 91.958 26.007-62.622 84.157-103.76 162.455-102.997v72.984c-92.244-1.061-162.455 55.457-162.455 175.683v170.5h-74.923v-297.16zM1021.212 264.717v347.957h75.175V264.717h93.88v-60.171h-93.88v-51.04c0-66.203 15.738-89.853 69.51-89.853 10.101 0 25.341 1.104 36.029 3.566V4.586C1191.158 1.358 1174.34 0 1154.512 0c-93.489 0-133.3 56.89-133.3 149.344v55.202H852.566v-51.04c0-66.203 15.74-89.853 69.512-89.853 10.102 0 25.34 1.104 36.03 3.566V4.586C947.34 1.358 930.518 0 910.693 0c-93.49 0-133.3 56.89-133.3 149.344v463.33h75.172V264.717h168.646z" fill="#000"/>
        <path d="M364.025 470.723c1.623-19.073 2.994-35.606 4.448-52.133.995-11.322.476-22.405-4.116-33.05-2.734-6.338-6.623-9.693-14.203-10.26-8.254-.62-16.704-2.754-24.386-5.902-10.539-4.318-15.158-14.451-11.62-25.357 2.19-6.758 5.484-14.013 10.413-18.886 29.783-29.449 55.044-62.364 77.835-97.393 9.748-14.986 20.576-29.276 31.056-43.776 12.197-16.879 20.576-35.453 24.104-55.96 5.75-33.422 25.587-56.95 53.101-74.213 9.33-5.855 21.152-8 32.074-10.966 14.687-3.989 29.749-5.21 44.938-3.22 21.74 2.85 38.569 13.832 52.707 30.38 16.143 18.9 33.669 36.615 49.813 55.515 14.376 16.83 33.349 23.761 53.993 27.214 5.948.995 12.651-.234 18.575-1.946 8.379-2.424 16.344-6.273 24.507-9.454 10.707-4.17 21.75-5.311 33.03-3.128 14.559 2.819 21.397 12.852 17.53 27.628-2.357 9.01-6.53 17.61-10.5 26.11-3.018 6.458-6.885 12.535-10.578 18.66-9.937 16.479-15.24 34.27-16.34 53.519-1.763 30.855-4.158 61.673-5.89 92.529-.997 17.749 3.642 34.894 7.228 52.055 6.55 31.347 13.686 62.573 20.44 93.878 3.647 16.892 3.141 33.5-3.2 49.887-3.511 9.069-5.682 18.652-8.919 27.84-5.204 14.778-12.938 20.236-28.556 20.005-23.318-.345-45.9 3.958-68.042 10.674-14.294 4.336-28.855 4.757-43.449 4.054-43.489-2.093-86.99-4.119-130.422-7.135-36.467-2.531-72.276-8.953-105.543-25.19-33.18-16.193-57.268-40.482-65.42-77.693-2.629-11.996-3.33-24.416-4.608-34.286" fill="#FCED3C"/>
        <path d="M602.476 176.104c3.168 3.486 6.756 7.437 10.71 11.794-9.485 8.515-19.77 15.387-30.834 21.232-19.297 10.198-38.161 8.887-56.473-2.206-7.983-4.835-15.456-10.518-23.924-16.341 5.067-4.495 9.178-8.139 12.87-11.411 7.735 4.89 15.72 10.453 24.181 15.162 11.516 6.404 23.452 6.181 34.854-.399 9.525-5.498 18.695-11.616 28.616-17.83M566.374 154.41h16.673v-36.173h-16.673zM543.57 153.899l-16.788 3.46-7.317-35.738 16.744-3.586 7.362 35.864" fill="#000"/>
    </g>
</svg>
