<svg width="1872" height="627" viewBox="0 0 1872 627" xmlns="http://www.w3.org/2000/svg">
    <g fill="none" fill-rule="evenodd">
        <path d="M0 0h1872v627H0z"/>
        <path d="M77.26 410.393c0 75.317 44.919 149.755 132.84 149.755 95.813 0 135.094-62.673 135.094-153.068 0-89.842-31.307-150.263-132.38-150.263-91.343 0-135.553 76.173-135.553 153.576zM417.198 6.198V494.06c0 39.27 0 79.344.792 118.615h-72.795c-2.128-17.368-2.923-41.993-3.172-62.29-20.284 34.77-54.557 73.58-147.6 73.58C78.3 623.965 0 535.705 0 411.962c0-134.228 99.335-218.71 203.854-218.71 94.3 0 126.815 43.526 138.168 63.016V6.198h75.175zM1514.453 372.025c-3.464-48.663-28.85-119.32-128.293-119.32-82.406 0-122.822 52.352-129.795 119.32h258.088zM1254.778 426.3c4.259 78.6 56.32 136.178 137.855 136.178 62.829 0 97.565-26.158 119.191-65.86h74.923c-21.575 60.611-78.255 127.347-198.166 127.347-143.566 0-209.02-106.805-209.02-214.125 0-123.327 80.73-216.589 207.142-216.589 152.304 0 205.89 113.52 205.89 212.976 0 6.877 0 12.182-.25 20.073h-337.565zM1634.622 315.513c0-36.806 0-74.162-.793-110.968h72.838c1.293 12.012 2.878 54.929 2.878 91.958 26.007-62.622 84.157-103.76 162.455-102.997v72.984c-92.244-1.061-162.455 55.457-162.455 175.683v170.5h-74.923v-297.16zM1021.212 264.717v347.957h75.175V264.717h93.88v-60.171h-93.88v-51.04c0-66.203 15.738-89.853 69.51-89.853 10.101 0 25.341 1.104 36.028 3.566V4.586C1191.158 1.358 1174.34 0 1154.512 0c-93.489 0-133.3 56.89-133.3 149.343v55.203H852.568v-51.04c0-66.203 15.739-89.853 69.508-89.853 10.104 0 25.341 1.104 36.031 3.566V4.586C947.339 1.358 930.519 0 910.694 0c-93.49 0-133.3 56.89-133.3 149.343v463.33h75.174V264.718h168.644z" fill="#000"/>
        <path d="M505.242 523.669v-24.67c7.842 0 15.315-.102 22.777.13.933.028 2.562 1.794 2.591 2.795.223 7.338.12 14.684.12 22.484h-25.027v25.077h-51.35V116.106h24.853v25.464h25.553v25.113h-24.923v356.986h25.406zM658.079 473.276h-24.607v-50.884h101.995c0-9.065 0-17.735-.005-26.4l-.131.13h25.546c0 5.523.005 9.928-.002 14.334-.015 10.683-.222 21.372.04 32.05.1 4.017-1.117 5.165-5.086 5.163-30.404-.027-60.808.152-91.212.265-1.638.007-3.279 0-4.915 0l-1.692 25.395.069-.053zM684.238 575.61v24.887h-51.327v-25.008h-25.526v-51.095h-25.536c-.322-15.901-.62-31.132-.959-46.363-.029-1.318-.305-2.631-.465-3.944l-.09.064c8.825-.496 17.65-.995 27.043-1.523v51.552c7.558 0 14.597.123 21.629-.053 3.212-.08 4.276.912 4.236 4.252-.171 13.739-.044 27.48-.027 41.22.003 1.627 0 3.252 0 6.12h51.131c0-.003-.109-.11-.109-.11" fill="#FF5EAA"/>
        <path d="M633.843 294.088h-26.104V268.9c-7.1 0-13.848-.254-20.564.093-4.143.216-5.648-.82-5.376-5.22.407-6.61.107-13.263.107-20.335H556.45v-25.594h-25.485V192.55h-25.239v-25.428h24.776v25.123h25.643v25.576h25.726v25.484h25.429v25.742c7.495 0 14.262.212 21.01-.082 3.846-.17 4.986 1.03 4.895 4.889-.158 6.774.314 13.56.52 20.342l.117-.107zM658.01 473.33h26.203v50.668h25.238v51.61h-25.213c0 .002.109.108.109.11v-51.384h-25.814c0-2.057-.004-3.528 0-4.998.054-14.175.123-28.349.136-42.522 0-1.185-.37-2.369-.579-3.546l-.08.062M580.424 474.086h-23.11v24.512c-8.294 0-15.869.144-23.422-.172-1.022-.042-2.734-2.36-2.785-3.675-.278-7.032-.131-14.082-.131-21.635h25.35v-25.278h25.335c-.334 8.86 1.59 17.651-1.32 26.308l.083-.06" fill="#FF5EAA"/>
        <path d="M633.727 294.195h24.97v25.738h25.533v25.453l.14-.138h-25.611v-25.232c-6.202 0-12.114.002-18.03 0-1.807-.002-3.632.129-5.413-.09-.764-.093-2.061-.928-2.057-1.413.09-8.138.345-16.273.574-24.418.01-.006-.106.1-.106.1M684.23 345.387h25.58v25.61h25.51c0 8.633 0 16.883.005 25.129.004-.005.131-.13.138-.134-8.285-.006-16.575-.006-25.424-.006v-24.71H684.37v-26.027l-.14.138" fill="#FF5EAA"/>
    </g>
</svg>
