<svg width="1872" height="627" viewBox="0 0 1872 627" xmlns="http://www.w3.org/2000/svg">
    <g fill="none" fill-rule="evenodd">
        <path d="M0 0h1872v627H0z"/>
        <path d="M77.26 410.393c0 75.317 44.919 149.755 132.84 149.755 95.813 0 135.094-62.673 135.094-153.067 0-89.843-31.307-150.263-132.38-150.263-91.343 0-135.553 76.172-135.553 153.575zM417.198 6.199V494.06c0 39.27 0 79.345.792 118.613h-72.795c-2.128-17.366-2.923-41.993-3.172-62.288-20.284 34.771-54.557 73.58-147.6 73.58C78.3 623.966 0 535.706 0 411.963c0-134.228 99.335-218.71 203.854-218.71 94.3 0 126.815 43.526 138.168 63.016V6.198h75.175zM1514.453 372.025c-3.464-48.663-28.85-119.32-128.293-119.32-82.406 0-122.822 52.352-129.795 119.32h258.088zM1254.778 426.3c4.259 78.6 56.32 136.178 137.855 136.178 62.829 0 97.565-26.158 119.191-65.86h74.923c-21.575 60.611-78.255 127.347-198.166 127.347-143.566 0-209.02-106.805-209.02-214.125 0-123.327 80.73-216.589 207.142-216.589 152.304 0 205.89 113.52 205.89 212.976 0 6.877 0 12.182-.25 20.073h-337.565zM1634.622 315.513c0-36.806 0-74.162-.793-110.968h72.838c1.293 12.012 2.878 54.929 2.878 91.958 26.007-62.622 84.157-103.76 162.455-102.997v72.984c-92.244-1.061-162.455 55.457-162.455 175.683v170.5h-74.923v-297.16zM1021.212 264.717v347.96h75.175v-347.96h93.88v-60.171h-93.88v-51.04c0-66.203 15.738-89.853 69.51-89.853 10.101 0 25.341 1.104 36.028 3.566V4.586C1191.158 1.358 1174.34 0 1154.512 0c-93.489 0-133.3 56.89-133.3 149.343v55.203H852.568v-51.04c0-66.203 15.739-89.853 69.508-89.853 10.104 0 25.341 1.104 36.031 3.566V4.586C947.339 1.358 930.519 0 910.694 0c-93.49 0-133.3 56.89-133.3 149.343v463.333h75.174v-347.96h168.644z" fill="#000"/>
        <path fill="#C8C8CD" d="m766.165 428.76-.065 34.925-32.318 4.541.065-34.925z"/>
        <path d="m734.267 433.667-.062 34.075 31.474-4.423.065-34.073-31.477 4.421zm-.906 35.043.065-35.773.363-.053 32.799-4.608-.067 35.773-.363.053-32.797 4.608z" fill="#000"/>
        <path fill="#665B4E" d="m733.782 468.226-11.16-6.07.065-34.926 11.16 6.07z"/>
        <path d="m723.043 461.904 10.32 5.614.063-33.965-10.32-5.617-.063 33.968zm11.16 7.028-12.003-6.527.002-.252.064-35.63 12.001 6.529v.25l-.064 35.63z" fill="#000"/>
        <path fill="#8D7E6C" d="m733.847 433.302-11.16-6.07 32.319-4.544 11.16 6.073z"/>
        <path d="m724.007 427.47 9.92 5.396 30.918-4.344-9.92-5.396-30.918 4.343zm9.76 6.268-.12-.067-12.282-6.68 33.719-4.74.122.07 12.279 6.678-33.718 4.74z" fill="#000"/>
        <path fill="#C8C8CD" d="m830.905 384.789-.065 34.882-32.358 4.546.067-34.88z"/>
        <path d="m798.968 389.702-.062 34.03 31.512-4.427.065-34.03-31.515 4.427zm-.906 35 .065-35.73.362-.053 32.837-4.615-.066 35.73-.361.052-32.837 4.617z" fill="#000"/>
        <path fill="#665B4E" d="m798.483 424.218-11.16-6.07.065-34.883 11.16 6.07z"/>
        <path d="m787.744 417.898 10.32 5.612.063-33.924-10.32-5.614-.063 33.926zm11.16 7.025L786.9 418.4l.003-.252.064-35.588 12.001 6.529v.25l-.064 35.585z" fill="#000"/>
        <path fill="#8D7E6C" d="m798.548 389.336-11.16-6.07 32.357-4.548 11.159 6.07z"/>
        <path d="m788.708 383.504 9.92 5.396 30.956-4.35-9.918-5.395-30.958 4.35zm9.76 6.269-.12-.067-12.282-6.68 33.758-4.746.123.069 12.279 6.68-33.759 4.744z" fill="#000"/>
        <path fill="#C8C8CD" d="m830.97 349.865-.065 34.925-32.358 4.545.067-34.922z"/>
        <path d="m799.033 354.778-.064 34.075 31.514-4.43.065-34.072-31.515 4.427zm-.908 35.043.067-35.773.363-.053 32.837-4.615-.067 35.775-.36.052-32.84 4.614z" fill="#000"/>
        <path fill="#665B4E" d="m798.548 389.336-11.16-6.07.065-34.925 11.16 6.07z"/>
        <path d="m787.81 383.015 10.317 5.614.065-33.965-10.32-5.617-.063 33.968zm11.157 7.028-12.001-6.527.002-.251.064-35.631 12.001 6.529v.25l-.066 35.63z" fill="#000"/>
        <path fill="#8D7E6C" d="m798.613 354.412-11.16-6.07 32.356-4.548 11.16 6.07z"/>
        <path d="m788.774 348.58 9.919 5.396 30.956-4.35-9.92-5.395-30.955 4.35zm9.759 6.27-.12-.068-12.282-6.68 33.759-4.746.12.069 12.281 6.68-33.758 4.744z" fill="#000"/>
        <path fill="#8D7E6C" d="m766.23 393.878-11.16-6.07 32.319-4.544 11.159 6.073z"/>
        <path d="m756.39 388.046 9.92 5.396 30.918-4.344-9.92-5.396-30.918 4.344zm9.761 6.268-.122-.067-12.281-6.68 33.718-4.74.123.07 12.279 6.678-33.717 4.74z" fill="#000"/>
        <path fill="#C8C8CD" d="m798.548 389.336-.065 34.883-32.318 4.541.065-34.883z"/>
        <path d="m766.65 394.243-.064 34.033 31.477-4.423.062-34.03-31.474 4.42zm-.908 35.003.067-35.733.363-.053 32.797-4.608-.065 35.73-.362.052-32.8 4.612z" fill="#000"/>
        <path fill="#665B4E" d="m766.165 428.76-11.16-6.07.065-34.883 11.16 6.07z"/>
        <path d="m755.427 422.439 10.318 5.614.064-33.925-10.32-5.615-.062 33.926zm11.157 7.028-12-6.527.001-.252.065-35.588 12 6.529v.25l-.066 35.588z" fill="#000"/>
        <path fill="#C8C8CD" d="m831.035 314.983-.065 34.883-32.358 4.545.066-34.88z"/>
        <path d="m799.099 319.896-.065 34.032 31.515-4.428.064-34.032-31.514 4.428zm-.909 35.003.067-35.733.363-.054 32.837-4.614-.067 35.733-.36.05-32.84 4.618z" fill="#000"/>
        <path fill="#665B4E" d="m798.613 354.412-11.16-6.07.065-34.883 11.16 6.07z"/>
        <path d="m787.875 348.091 10.318 5.615.064-33.926-10.32-5.614-.062 33.925zm11.157 7.028-12.001-6.527.002-.251.065-35.589 12 6.53v.249l-.066 35.588z" fill="#000"/>
        <path fill="#8D7E6C" d="m798.677 319.53-11.159-6.07 32.356-4.548 11.16 6.07z"/>
        <path d="m788.838 313.698 9.92 5.396 30.955-4.35-9.917-5.396-30.958 4.35zm9.761 6.269-.122-.067-12.282-6.68 33.759-4.747.122.07 12.28 6.68-33.757 4.744z" fill="#000"/>
        <path fill="#C8C8CD" d="m831.1 280.101-.065 34.883-32.359 4.546.067-34.88z"/>
        <path d="m799.163 285.013-.063 34.032 31.513-4.427.064-34.033-31.514 4.428zm-.906 35.003.064-35.733.363-.054 32.837-4.614-.067 35.733-.36.051-32.837 4.617z" fill="#000"/>
        <path fill="#665B4E" d="m798.677 319.53-11.159-6.07.065-34.883 11.159 6.07z"/>
        <path d="m787.939 313.209 10.32 5.614.062-33.925-10.32-5.612-.062 33.923zm11.16 7.028-12.004-6.527.002-.252.065-35.586 12 6.527v.25l-.064 35.588z" fill="#000"/>
        <path fill="#8D7E6C" d="m798.742 284.649-11.16-6.07 32.357-4.549 11.16 6.07z"/>
        <path d="m788.903 278.817 9.92 5.394 30.955-4.35-9.92-5.393-30.955 4.35zm9.759 6.267-.12-.067-12.282-6.678 33.759-4.746.12.069 12.282 6.678-33.759 4.744z" fill="#000"/>
        <path fill="#C8C8CD" d="m798.613 354.412-.065 34.925-32.318 4.541.064-34.925z"/>
        <path d="m766.715 359.32-.063 34.074 31.475-4.423.065-34.073-31.477 4.421zm-.906 35.042.064-35.773.363-.053 32.8-4.608-.067 35.773-.363.053-32.797 4.608z" fill="#000"/>
        <path fill="#8D7E6C" d="m766.295 358.954-11.16-6.07 32.318-4.544 11.16 6.073z"/>
        <path d="m756.455 353.122 9.92 5.396 30.918-4.343-9.92-5.396-30.918 4.343zm9.76 6.268-.12-.067-12.282-6.68 33.718-4.74.123.07 12.279 6.678-33.719 4.74z" fill="#000"/>
        <path fill="#665B4E" d="m766.23 393.878-11.16-6.07.065-34.925 11.16 6.07z"/>
        <path d="m755.491 387.556 10.32 5.615.063-33.966-10.32-5.616-.063 33.967zm11.16 7.028-12.004-6.527.003-.251.064-35.63 12.001 6.528v.25l-.065 35.63z" fill="#000"/>
        <path fill="#8D7E6C" d="m733.912 398.42-11.16-6.07 32.319-4.544 11.159 6.073z"/>
        <path d="m724.073 392.589 9.919 5.394 30.918-4.343-9.92-5.396-30.917 4.345zm9.759 6.266-.12-.066-12.282-6.679 33.719-4.741.122.069 12.28 6.68-33.72 4.737z" fill="#000"/>
        <path fill="#665B4E" d="m733.847 433.302-11.16-6.07.065-34.883 11.16 6.07z"/>
        <path d="m723.109 426.98 10.317 5.615.065-33.926-10.32-5.612-.062 33.923zm11.157 7.028-12.001-6.527.002-.251.065-35.586 12 6.526v.25l-.066 35.588z" fill="#000"/>
        <path fill="#C8C8CD" d="m766.23 393.878-.065 34.883-32.318 4.541.064-34.883z"/>
        <path d="m734.332 398.785-.064 34.032 31.477-4.421.064-34.032-31.477 4.42zm-.908 35.003.067-35.734.363-.053 32.799-4.608-.067 35.733-.363.051-32.799 4.61z" fill="#000"/>
        <path fill="#C8C8CD" d="m798.677 319.53-.064 34.883-32.318 4.541.064-34.883z"/>
        <path d="m766.78 324.437-.065 34.032 31.477-4.42.065-34.033-31.477 4.421zm-.908 35.003.067-35.733.362-.054 32.8-4.608-.067 35.733-.363.052-32.8 4.61z" fill="#000"/>
        <path fill="#665B4E" d="m766.295 358.954-11.16-6.07L755.2 318l11.16 6.07z"/>
        <path d="m755.556 352.633 10.318 5.614.065-33.926-10.32-5.612-.063 33.924zm11.157 7.027-12-6.527.002-.251.064-35.586 12.001 6.527v.249l-.067 35.588z" fill="#000"/>
        <path fill="#8D7E6C" d="m766.36 324.072-11.16-6.07 32.318-4.544 11.16 6.073z"/>
        <path d="m756.52 318.241 9.92 5.394 30.918-4.343-9.92-5.396-30.918 4.345zm9.76 6.267-.12-.067-12.282-6.678 33.719-4.742.122.07 12.28 6.68-33.72 4.737z" fill="#000"/>
        <path fill="#665B4E" d="m701.425 472.774-11.16-6.07.065-34.926 11.16 6.07z"/>
        <path d="m690.687 466.452 10.318 5.614.064-33.965-10.32-5.617-.062 33.968zm11.157 7.028-12.001-6.527.002-.252.065-35.63 12 6.529v.249l-.066 35.63z" fill="#000"/>
        <path fill="#C8C8CD" d="m733.847 433.302-.065 34.925-32.358 4.546.067-34.923z"/>
        <path d="m701.91 438.215-.064 34.075 31.515-4.43.064-34.073-31.514 4.428zm-.908 35.043.067-35.773.363-.054 32.837-4.614-.067 35.775-.36.051-32.84 4.615z" fill="#000"/>
        <path fill="#8D7E6C" d="m701.49 437.85-11.16-6.071 32.356-4.548 11.16 6.07z"/>
        <path d="m691.65 432.017 9.92 5.396 30.955-4.35-9.917-5.396-30.958 4.35zm9.761 6.269-.122-.067-12.282-6.68 33.759-4.746.122.069 12.28 6.68-33.757 4.744z" fill="#000"/>
        <path fill="#665B4E" d="m733.912 398.42-11.16-6.07.065-34.925 11.16 6.07z"/>
        <path d="m723.174 392.1 10.318 5.612.064-33.966-10.32-5.614-.062 33.968zm11.157 7.025-12.001-6.524.002-.252.065-35.63 12 6.526v.25l-.066 35.63z" fill="#000"/>
        <path fill="#C8C8CD" d="m766.295 358.954-.065 34.925-32.318 4.541.064-34.925z"/>
        <path d="m734.398 363.86-.065 34.076 31.477-4.424.062-34.072-31.474 4.42zm-.909 35.044.067-35.773.363-.054 32.797-4.608-.065 35.774-.362.053-32.8 4.608z" fill="#000"/>
        <path fill="#8D7E6C" d="m733.976 363.496-11.159-6.07 32.318-4.544 11.16 6.073z"/>
        <path d="m724.137 357.665 9.92 5.394 30.917-4.343-9.92-5.396-30.917 4.345zm9.761 6.267-.122-.067-12.282-6.678 33.719-4.742.122.07 12.28 6.68-33.717 4.737z" fill="#000"/>
        <path fill="#8D7E6C" d="m766.424 289.19-11.16-6.07 32.319-4.543 11.16 6.072z"/>
        <path d="m756.585 283.359 9.919 5.396 30.918-4.345-9.92-5.394-30.917 4.343zm9.759 6.268-.12-.066-12.282-6.68 33.719-4.74.122.069 12.28 6.678-33.72 4.74z" fill="#000"/>
        <path fill="#C8C8CD" d="m798.742 284.649-.064 34.882-32.319 4.542.065-34.883z"/>
        <path d="m766.844 289.557-.062 34.03 31.475-4.421.064-34.033-31.477 4.424zm-.906 35 .065-35.73.363-.054 32.799-4.61-.067 35.733-.36.051-32.8 4.61z" fill="#000"/>
        <path fill="#665B4E" d="m766.36 324.072-11.16-6.07.065-34.883 11.159 6.07z"/>
        <path d="m755.621 317.752 10.318 5.612.063-33.923-10.318-5.614-.063 33.925zm11.157 7.026-12-6.525.002-.251.064-35.589 12.001 6.53v.249l-.067 35.586z" fill="#000"/>
        <path fill="#665B4E" d="m701.49 437.85-11.16-6.071.065-34.883 11.16 6.07z"/>
        <path d="m690.75 431.528 10.32 5.614.063-33.925-10.32-5.612-.062 33.923zm11.16 7.028-12.003-6.527.002-.252.065-35.586 12 6.527v.25l-.064 35.588z" fill="#000"/>
        <path fill="#C8C8CD" d="m733.912 398.42-.065 34.883-32.358 4.546.067-34.88z"/>
        <path d="m701.975 403.332-.063 34.033 31.513-4.428.064-34.032-31.514 4.427zm-.906 35.003.064-35.733.363-.053 32.837-4.615-.067 35.733-.36.052-32.837 4.616z" fill="#000"/>
        <path fill="#8D7E6C" d="m701.554 402.968-11.159-6.07 32.356-4.549 11.16 6.07z"/>
        <path d="m691.715 397.137 9.92 5.394 30.955-4.35-9.917-5.394-30.958 4.35zm9.76 6.266-.121-.066-12.281-6.679 33.758-4.746.123.07 12.279 6.678-33.759 4.743z" fill="#000"/>
        <path fill="#CF181F" d="m766.36 324.072-.065 34.883-32.319 4.541.065-34.882z"/>
        <path d="m734.462 328.98-.063 34.03 31.475-4.42.065-34.033-31.477 4.423zm-.906 35.001.064-35.73.363-.054 32.8-4.61-.068 35.733-.362.05-32.797 4.611z" fill="#000"/>
        <path fill="#A71419" d="m734.041 328.614-11.16-6.07 32.32-4.544 11.159 6.073z"/>
        <path d="m724.202 322.783 9.92 5.396 30.917-4.346-9.919-5.394-30.918 4.344zm9.76 6.268-.121-.067-12.281-6.68 33.718-4.74.123.07 12.279 6.678-33.719 4.74z" fill="#000"/>
        <path fill="#790E12" d="m733.976 363.496-11.159-6.07.065-34.883 11.159 6.07z"/>
        <path d="m723.238 357.176 10.32 5.612.062-33.923-10.32-5.615-.062 33.926zm11.16 7.026-12.004-6.525.002-.252.065-35.588 12 6.529v.25l-.064 35.586z" fill="#000"/>
        <path fill="#C8C8CD" d="m701.49 437.85-.065 34.925-32.318 4.54.064-34.924z"/>
        <path d="m669.592 442.756-.064 34.075 31.477-4.423.064-34.073-31.477 4.421zm-.908 35.043.067-35.773.363-.053 32.799-4.608-.067 35.773-.363.053-32.799 4.608z" fill="#000"/>
        <path fill="#8D7E6C" d="m669.172 442.391-11.16-6.07 32.319-4.544 11.159 6.073z"/>
        <path d="m659.333 436.559 9.919 5.396 30.918-4.343-9.92-5.397-30.917 4.344zm9.759 6.268-.12-.067-12.282-6.68 33.719-4.74.122.07 12.28 6.678-33.72 4.74z" fill="#000"/>
        <path fill="#665B4E" d="m669.107 477.315-11.16-6.07.065-34.925 11.16 6.07z"/>
        <path d="m658.368 470.995 10.318 5.612.065-33.965-10.32-5.617-.063 33.97zm11.158 7.026-12.001-6.525.002-.251.065-35.633 12 6.529v.25l-.066 35.63z" fill="#000"/>
        <path fill="#B2A817" d="m701.62 368.044-11.16-6.071 32.356-4.548 11.16 6.07z"/>
        <path d="m691.78 362.21 9.92 5.397 30.956-4.35-9.92-5.394-30.956 4.348zm9.76 6.27-.12-.067-12.282-6.68 33.758-4.744.12.069 12.282 6.678-33.759 4.744z" fill="#000"/>
        <path fill="#DCD01D" d="m733.976 363.496-.064 34.925-32.358 4.546.066-34.923z"/>
        <path d="m702.04 368.409-.065 34.074 31.515-4.43.065-34.072-31.515 4.428zm-.908 35.043.066-35.774.363-.053 32.837-4.615-.066 35.776-.361.05-32.84 4.616z" fill="#000"/>
        <path fill="#817A11" d="m701.554 402.968-11.159-6.07.065-34.926 11.159 6.07z"/>
        <path d="m690.816 396.648 10.318 5.612.064-33.966-10.32-5.616-.062 33.97zm11.157 7.025-12-6.524.002-.252.064-35.633 12.001 6.53v.249l-.067 35.63z" fill="#000"/>
        <path fill="#C8C8CD" d="m766.424 289.19-.064 34.883-32.319 4.541.065-34.882z"/>
        <path d="m734.527 294.098-.065 34.032 31.477-4.423.063-34.03-31.475 4.42zm-.908 35.003.067-35.733.362-.054 32.797-4.608-.064 35.731-.363.051-32.8 4.613z" fill="#000"/>
        <path fill="#665B4E" d="m734.041 328.614-11.16-6.07.065-34.883 11.16 6.07z"/>
        <path d="m723.303 322.293 10.318 5.615.065-33.926-10.32-5.614-.063 33.925zm11.157 7.028-12-6.527.002-.251.064-35.589 12.001 6.53v.249l-.067 35.588z" fill="#000"/>
        <path fill="#8D7E6C" d="m734.106 293.733-11.16-6.07 32.319-4.544 11.16 6.072z"/>
        <path d="m724.267 287.9 9.92 5.396 30.915-4.343-9.917-5.396-30.918 4.343zm9.76 6.269-.12-.067-12.282-6.68 33.718-4.74.123.07 12.279 6.677-33.719 4.74z" fill="#000"/>
        <path fill="#C8C8CD" d="m701.554 402.968-.064 34.882-32.318 4.542.064-34.883z"/>
        <path d="m669.658 407.876-.065 34.03 31.477-4.42.062-34.033-31.474 4.423zm-.909 35 .067-35.73.363-.054 32.797-4.61-.065 35.733-.363.051-32.799 4.61z" fill="#000"/>
        <path fill="#8D7E6C" d="m669.236 407.51-11.159-6.07 32.318-4.544 11.16 6.073z"/>
        <path d="m659.397 401.678 9.92 5.396 30.917-4.345-9.92-5.394-30.917 4.343zm9.761 6.269-.122-.067-12.282-6.68 33.719-4.74.122.07 12.28 6.677-33.717 4.74z" fill="#000"/>
        <path fill="#665B4E" d="m669.172 442.391-11.16-6.07.065-34.883 11.16 6.07z"/>
        <path d="m658.434 436.07 10.318 5.614.064-33.924-10.32-5.614-.062 33.924zm11.157 7.027-12.001-6.527.002-.251.065-35.586 12 6.529v.25l-.066 35.585z" fill="#000"/>
        <path fill="#C8C8CD" d="m734.041 328.614-.064 34.883-32.359 4.546.067-34.88z"/>
        <path d="m702.105 333.526-.064 34.032 31.514-4.427.065-34.03-31.515 4.425zm-.908 35.003.067-35.733.363-.054 32.837-4.612-.067 35.73-.36.052-32.84 4.617z" fill="#000"/>
        <path fill="#665B4E" d="m701.62 368.044-11.16-6.071.065-34.883 11.159 6.07z"/>
        <path d="m690.881 361.722 10.318 5.614.065-33.926-10.32-5.612-.063 33.924zm11.157 7.027-12-6.526.002-.252.064-35.586 12.001 6.527v.249l-.067 35.588z" fill="#000"/>
        <path fill="#8D7E6C" d="m701.684 333.162-11.16-6.07 32.357-4.549 11.16 6.071z"/>
        <path d="m691.844 327.33 9.92 5.394 30.956-4.347-9.918-5.396-30.958 4.35zm9.762 6.267-.123-.067-12.281-6.678 33.758-4.746.123.069 12.279 6.68-33.756 4.742z" fill="#000"/>
        <path fill="#C8C8CD" d="m766.489 254.267-.065 34.925-32.318 4.54.065-34.924z"/>
        <path d="m734.592 259.174-.064 34.075 31.474-4.424.065-34.072-31.475 4.421zm-.908 35.043.067-35.773.363-.054 32.796-4.608-.066 35.774-.36.053-32.8 4.608z" fill="#000"/>
        <path fill="#665B4E" d="m734.106 293.733-11.16-6.07.065-34.926 11.16 6.07z"/>
        <path d="m723.368 287.411 10.318 5.614.065-33.965-10.32-5.617-.063 33.968zm11.157 7.028-12-6.527.002-.252.064-35.63 12.001 6.529v.249l-.067 35.63z" fill="#000"/>
        <path fill="#8D7E6C" d="m734.171 258.808-11.16-6.07 32.319-4.543 11.16 6.072z"/>
        <path d="m724.331 252.976 9.92 5.396 30.918-4.343-9.92-5.396-30.918 4.343zm9.762 6.269-.123-.067-12.281-6.68 33.718-4.74.123.07 12.279 6.677-33.716 4.74z" fill="#000"/>
        <path fill="#8D7E6C" d="m669.301 372.586-11.16-6.07 32.32-4.544 11.158 6.072z"/>
        <path d="m659.462 366.754 9.92 5.394 30.917-4.343-9.919-5.396-30.918 4.345zm9.759 6.267-.12-.067-12.281-6.678 33.718-4.742.122.07 12.28 6.68-33.719 4.737z" fill="#000"/>
        <path fill="#665B4E" d="m669.236 407.51-11.159-6.07.065-34.926 11.159 6.07z"/>
        <path d="m658.498 401.189 10.32 5.614.062-33.968-10.32-5.614-.062 33.968zm11.16 7.028-12.004-6.527.002-.252.065-35.63 12 6.527v.249l-.064 35.633z" fill="#000"/>
        <path fill="#C8C8CD" d="m701.62 368.044-.065 34.925-32.318 4.54.064-34.924z"/>
        <path d="m669.722 372.95-.063 34.077 31.475-4.426.064-34.072-31.476 4.421zm-.906 35.045.064-35.775.363-.054 32.8-4.608-.068 35.774-.362.053-32.797 4.61z" fill="#000"/>
        <path fill="#0063A4" d="m734.106 293.733-.065 34.882-32.358 4.546.067-34.88z"/>
        <path d="m702.17 298.646-.063 34.03 31.512-4.426.065-34.032-31.515 4.428zm-.907 35 .065-35.73.363-.054 32.837-4.614-.067 35.733-.36.05-32.838 4.616z" fill="#000"/>
        <path fill="#005085" d="m701.749 298.28-11.16-6.07 32.357-4.548 11.16 6.07z"/>
        <path d="m691.91 292.448 9.919 5.396 30.956-4.35-9.917-5.396-30.959 4.35zm9.759 6.269-.12-.067-12.282-6.68 33.759-4.747.122.07 12.28 6.68-33.76 4.744z" fill="#000"/>
        <path fill="#003A60" d="m701.684 333.162-11.16-6.07.065-34.883 11.16 6.07z"/>
        <path d="m690.945 326.841 10.32 5.612.063-33.923-10.32-5.614-.063 33.925zm11.16 7.026-12.003-6.525.002-.251.064-35.589 12.001 6.53v.249l-.064 35.586z" fill="#000"/>
        <path fill="#8D7E6C" d="m636.88 412.057-11.16-6.07 32.356-4.548 11.16 6.07z"/>
        <path d="m627.04 406.226 9.92 5.394 30.955-4.348-9.919-5.396-30.956 4.35zm9.76 6.266-.121-.066-12.281-6.679 33.758-4.746.12.07 12.282 6.68-33.759 4.741z" fill="#000"/>
        <path fill="#665B4E" d="m636.815 446.939-11.16-6.07.065-34.883 11.16 6.07z"/>
        <path d="m626.076 440.617 10.318 5.614.064-33.925-10.32-5.612-.062 33.923zm11.157 7.028-12-6.527.002-.252.064-35.586 12 6.527v.25l-.066 35.588z" fill="#000"/>
        <path fill="#C8C8CD" d="m669.236 407.51-.064 34.882-32.359 4.546.067-34.88z"/>
        <path d="m637.3 412.422-.065 34.032 31.515-4.428.065-34.03-31.515 4.426zm-.908 35.003.066-35.734.363-.053 32.837-4.612-.067 35.73-.36.052-32.84 4.617z" fill="#000"/>
        <path fill="#C8C8CD" d="m766.554 219.385-.065 34.882-32.318 4.542.065-34.883z"/>
        <path d="m734.656 224.291-.062 34.033 31.475-4.421.064-34.033-31.477 4.421zm-.906 35.003.065-35.733.363-.053 32.799-4.608-.067 35.733-.363.051-32.797 4.61z" fill="#000"/>
        <path fill="#2A2421" d="m734.171 258.808-11.16-6.07.065-34.883 11.16 6.07z"/>
        <path d="m723.432 252.487 10.32 5.614.063-33.925-10.32-5.612-.063 33.923zm11.16 7.028-12.003-6.527.002-.252.064-35.586 12.001 6.527v.25l-.064 35.588z" fill="#000"/>
        <path fill="#665B4E" d="m734.236 223.927-11.16-6.07 32.319-4.544 11.16 6.073z"/>
        <path d="m724.397 218.096 9.919 5.394 30.918-4.343-9.92-5.396-30.917 4.345zm9.759 6.266-.12-.066-12.282-6.679 33.719-4.741.122.069 12.28 6.68-33.72 4.737z" fill="#000"/>
        <path fill="#007F3C" d="m701.684 333.162-.065 34.883-32.318 4.54.065-34.882z"/>
        <path d="m669.787 338.07-.065 34.03 31.477-4.421.065-34.033-31.477 4.424zm-.908 35 .066-35.73.363-.054 32.8-4.61-.067 35.733-.363.051-32.8 4.61z" fill="#000"/>
        <path fill="#004B23" d="m669.301 372.586-11.16-6.07.065-34.884 11.16 6.07z"/>
        <path d="m658.563 366.265 10.318 5.612.064-33.923-10.32-5.614-.062 33.925zm11.157 7.026-12-6.525.002-.252.064-35.588 12 6.53v.248l-.066 35.587z" fill="#000"/>
        <path fill="#006731" d="m669.366 337.704-11.16-6.07 32.32-4.544 11.158 6.073z"/>
        <path d="m659.527 331.872 9.92 5.396 30.918-4.346-9.92-5.393-30.918 4.343zm9.76 6.268-.121-.066-12.281-6.681 33.718-4.74.123.07 12.279 6.678-33.719 4.74z" fill="#000"/>
        <path fill="#8D7E6C" d="m701.814 263.356-11.16-6.07 32.357-4.548 11.159 6.07z"/>
        <path d="m691.975 257.524 9.92 5.396 30.955-4.35-9.92-5.396-30.955 4.35zm9.759 6.269-.12-.067-12.282-6.68 33.759-4.747.12.07 12.281 6.68-33.758 4.744z" fill="#000"/>
        <path fill="#C8C8CD" d="m734.171 258.808-.065 34.926-32.358 4.545.067-34.923z"/>
        <path d="m702.235 263.722-.065 34.075 31.515-4.43.064-34.073-31.514 4.428zm-.909 35.043.067-35.773.363-.054 32.837-4.614-.067 35.775-.36.051-32.84 4.615z" fill="#000"/>
        <path fill="#665B4E" d="m701.749 298.28-11.16-6.07.065-34.925 11.16 6.07z"/>
        <path d="m691.01 291.959 10.319 5.614.064-33.966-10.32-5.616-.062 33.968zm11.158 7.028-12.001-6.527.002-.252.065-35.63 12 6.529v.249l-.066 35.63z" fill="#000"/>
        <path fill="#C8C8CD" d="m669.301 372.586-.064 34.925-32.359 4.545.067-34.923z"/>
        <path d="m637.365 377.498-.064 34.074 31.514-4.427.065-34.075-31.515 4.428zm-.908 35.043.067-35.773.363-.054 32.836-4.615-.066 35.776-.36.053-32.84 4.613z" fill="#000"/>
        <path fill="#8D7E6C" d="m636.944 377.133-11.16-6.07 32.357-4.548 11.16 6.07z"/>
        <path d="m627.104 371.302 9.92 5.394 30.956-4.35-9.918-5.394-30.958 4.35zm9.762 6.266-.123-.066-12.281-6.679 33.758-4.746.123.07 12.279 6.678-33.756 4.743z" fill="#000"/>
        <path fill="#665B4E" d="m636.88 412.057-11.16-6.07.065-34.925 11.159 6.07z"/>
        <path d="m626.141 405.737 10.318 5.612.065-33.966-10.32-5.614-.063 33.968zm11.157 7.025-12-6.524.002-.252.064-35.63 12.001 6.526v.25l-.067 35.63z" fill="#000"/>
        <path fill="#8D7E6C" d="m669.431 302.822-11.16-6.07 32.319-4.544 11.16 6.073z"/>
        <path d="m659.591 296.99 9.92 5.395 30.918-4.343-9.92-5.396-30.918 4.343zm9.762 6.268-.123-.067-12.281-6.68 33.718-4.74.123.07 12.279 6.677-33.716 4.74z" fill="#000"/>
        <path fill="#665B4E" d="m669.366 337.704-11.16-6.07.065-34.883 11.16 6.07z"/>
        <path d="m658.628 331.383 10.318 5.614.065-33.926-10.32-5.614-.063 33.926zm11.157 7.027-12-6.527.002-.251.064-35.588 12.001 6.529v.249l-.067 35.588z" fill="#000"/>
        <path fill="#C8C8CD" d="m701.749 298.28-.065 34.883-32.318 4.541.065-34.883z"/>
        <path d="m669.852 303.187-.064 34.032 31.476-4.423.063-34.03-31.475 4.421zm-.908 35.003.067-35.733.363-.054 32.796-4.608-.064 35.731-.363.052-32.8 4.612z" fill="#000"/>
        <path fill="#8D7E6C" d="m604.561 416.6-11.159-6.071 32.318-4.544 11.16 6.073z"/>
        <path d="m594.722 410.767 9.92 5.396 30.917-4.345-9.92-5.394-30.917 4.343zm9.759 6.269-.12-.067-12.282-6.68 33.719-4.74.122.07 12.28 6.678-33.719 4.739z" fill="#000"/>
        <path fill="#665B4E" d="m604.497 451.48-11.16-6.07.065-34.882 11.16 6.07z"/>
        <path d="m593.757 445.16 10.32 5.613.063-33.924-10.32-5.614-.063 33.926zm11.16 7.026-12.003-6.525.002-.251.065-35.588 12 6.529v.249l-.064 35.586z" fill="#000"/>
        <path fill="#C8C8CD" d="m636.88 412.057-.065 34.883-32.318 4.541.064-34.883z"/>
        <path d="m604.981 416.965-.062 34.03 31.475-4.42.064-34.033-31.477 4.423zm-.906 35 .065-35.73.363-.054 32.799-4.61-.067 35.733-.363.052-32.797 4.61z" fill="#000"/>
        <path fill="#2A2421" d="m701.814 263.356-11.16-6.07.065-34.883 11.16 6.07z"/>
        <path d="m691.076 257.035 10.318 5.614.064-33.925-10.32-5.615-.062 33.926zm11.157 7.028-12-6.527.001-.252.065-35.588 12 6.529v.25l-.066 35.588z" fill="#000"/>
        <path fill="#C8C8CD" d="m734.236 223.927-.065 34.883-32.358 4.545.067-34.88z"/>
        <path d="m702.3 228.84-.065 34.032 31.515-4.428.064-34.032-31.514 4.427zm-.909 35.002.067-35.733.363-.053 32.837-4.615-.067 35.733-.36.051-32.84 4.617z" fill="#000"/>
        <path fill="#665B4E" d="m701.879 228.474-11.16-6.07 32.356-4.548 11.16 6.07z"/>
        <path d="m692.039 222.642 9.92 5.396 30.955-4.35-9.917-5.394-30.958 4.348zm9.761 6.268-.122-.067-12.282-6.68 33.759-4.744.122.07 12.28 6.677-33.757 4.744z" fill="#000"/>
        <path fill="#C8C8CD" d="m669.366 337.704-.064 34.882-32.359 4.546.067-34.88z"/>
        <path d="m637.43 342.617-.063 34.03 31.512-4.427.065-34.03-31.515 4.427zm-.907 35.001.065-35.73.363-.054 32.837-4.615-.067 35.731-.36.051-32.838 4.617z" fill="#000"/>
        <path fill="#665B4E" d="m636.944 377.133-11.16-6.07.065-34.883 11.16 6.07z"/>
        <path d="m626.205 370.813 10.32 5.612.063-33.923-10.32-5.615-.063 33.926zm11.16 7.025-12.003-6.524.002-.252.064-35.588 12.001 6.529v.25l-.064 35.585z" fill="#000"/>
        <path fill="#8D7E6C" d="m637.009 342.251-11.16-6.07 32.357-4.548 11.16 6.07z"/>
        <path d="m627.17 336.42 9.919 5.396 30.956-4.35-9.917-5.396-30.959 4.35zm9.759 6.268-.12-.067-12.282-6.68 33.759-4.746.122.069 12.28 6.68-33.76 4.744z" fill="#000"/>
        <path fill="#8D7E6C" d="m669.496 267.898-11.16-6.07 32.319-4.544 11.159 6.073z"/>
        <path d="m659.656 262.065 9.92 5.396 30.918-4.343-9.92-5.396-30.918 4.343zm9.76 6.269-.12-.067-12.282-6.68 33.719-4.74.122.07 12.28 6.678-33.72 4.739z" fill="#000"/>
        <path fill="#C8C8CD" d="m701.814 263.356-.065 34.925-32.318 4.541.065-34.925z"/>
        <path d="m669.916 268.263-.062 34.075 31.475-4.423.064-34.073-31.477 4.421zm-.906 35.043.065-35.773.363-.053 32.799-4.608-.067 35.773-.363.053-32.797 4.608z" fill="#000"/>
        <path fill="#665B4E" d="m669.431 302.822-11.16-6.07.065-34.925 11.16 6.07z"/>
        <path d="m658.692 296.5 10.32 5.614.063-33.965-10.32-5.617-.063 33.968zm11.16 7.028L657.849 297l.002-.252.064-35.63 12.001 6.529v.25l-.064 35.63z" fill="#000"/>
        <path fill="#C8C8CD" d="m636.944 377.133-.064 34.925-32.319 4.541.065-34.925z"/>
        <path d="m605.047 382.041-.065 34.075 31.477-4.425.064-34.073-31.476 4.423zm-.909 35.043.067-35.773.363-.053 32.8-4.61-.068 35.773-.363.053-32.799 4.61z" fill="#000"/>
        <path fill="#8D7E6C" d="m604.626 381.675-11.16-6.07 32.319-4.544 11.16 6.073z"/>
        <path d="m594.787 375.843 9.92 5.397 30.917-4.346-9.92-5.394-30.917 4.343zm9.759 6.27-.12-.068-12.282-6.68 33.719-4.74.122.07 12.28 6.678-33.719 4.74z" fill="#000"/>
        <path fill="#665B4E" d="m604.561 416.6-11.159-6.071.065-34.925 11.159 6.07z"/>
        <path d="m593.823 410.278 10.318 5.614.064-33.965-10.32-5.617-.062 33.968zm11.157 7.028-12.001-6.527.002-.252.065-35.63 12 6.529v.25l-.066 35.63z" fill="#000"/>
        <path fill="#C8C8CD" d="m669.431 302.822-.065 34.883-32.358 4.546.067-34.881z"/>
        <path d="m637.494 307.735-.064 34.032 31.515-4.427.064-34.033-31.515 4.428zm-.908 35.003.067-35.733.363-.054 32.837-4.614-.067 35.733-.36.05-32.84 4.618z" fill="#000"/>
        <path fill="#665B4E" d="m637.009 342.251-11.16-6.07.065-34.883 11.16 6.07z"/>
        <path d="m626.27 335.93 10.318 5.615.065-33.926-10.32-5.614-.062 33.925zm11.158 7.028-12.001-6.527.002-.251.065-35.589 12 6.53v.249l-.066 35.588z" fill="#000"/>
        <path fill="#8D7E6C" d="m637.074 307.37-11.16-6.07 32.356-4.549 11.16 6.07z"/>
        <path d="m627.235 301.537 9.92 5.396 30.955-4.35-9.92-5.396-30.955 4.35zm9.759 6.269-.12-.067-12.282-6.68 33.759-4.747.12.07 12.281 6.68-33.758 4.744z" fill="#000"/>
        <path fill="#C8C8CD" d="m604.561 416.6-.064 34.882-32.359 4.546.067-34.88z"/>
        <path d="m572.625 421.513-.065 34.03 31.515-4.428.065-34.03-31.515 4.428zm-.908 35 .067-35.73.362-.054 32.837-4.614-.066 35.73-.361.052-32.84 4.617z" fill="#000"/>
        <path fill="#665B4E" d="m572.14 456.028-11.16-6.07.065-34.883 11.159 6.07z"/>
        <path d="m561.401 449.708 10.318 5.612.065-33.923-10.32-5.614-.063 33.925zm11.157 7.026-12-6.525.002-.251.064-35.589 12.001 6.53v.249l-.067 35.586z" fill="#000"/>
        <path fill="#8D7E6C" d="m572.204 421.147-11.16-6.07 32.357-4.549 11.16 6.07z"/>
        <path d="m562.364 415.315 9.92 5.396 30.955-4.35-9.917-5.396-30.958 4.35zm9.762 6.269-.123-.067-12.281-6.68 33.758-4.747.123.07 12.279 6.68-33.756 4.744z" fill="#000"/>
        <path fill="#665B4E" d="m669.496 267.898-11.16-6.07.065-34.883 11.16 6.07z"/>
        <path d="m658.758 261.576 10.317 5.614.065-33.925-10.32-5.612-.062 33.923zm11.157 7.028-12.001-6.527.002-.252.065-35.586 12 6.527v.25l-.066 35.588z" fill="#000"/>
        <path fill="#665B4E" d="m669.56 233.016-11.159-6.07 32.318-4.544 11.16 6.073z"/>
        <path d="m659.722 227.185 9.92 5.394 30.917-4.343-9.92-5.396-30.917 4.345zm9.759 6.266-.12-.066-12.282-6.679 33.719-4.741.122.069 12.28 6.68-33.72 4.737z" fill="#000"/>
        <path fill="#C8C8CD" d="m701.879 228.474-.065 34.883-32.318 4.541.064-34.882z"/>
        <path d="m669.981 233.38-.064 34.033 31.477-4.421.064-34.032-31.477 4.42zm-.908 35.004.067-35.734.363-.053 32.799-4.608-.067 35.733-.363.051-32.799 4.61z" fill="#000"/>
        <path fill="#C8C8CD" d="m637.009 342.251-.065 34.883-32.318 4.541.065-34.882z"/>
        <path d="m605.112 347.159-.065 34.032 31.477-4.423.062-34.03-31.474 4.42zm-.908 35.003.066-35.734.363-.053 32.797-4.608-.064 35.73-.363.052-32.8 4.613z" fill="#000"/>
        <path fill="#665B4E" d="m604.626 381.675-11.16-6.07.065-34.883 11.16 6.07z"/>
        <path d="m593.888 375.354 10.318 5.614.064-33.925-10.32-5.614-.062 33.925zm11.157 7.028-12-6.527.001-.251.065-35.589 12 6.53v.249l-.066 35.588z" fill="#000"/>
        <path fill="#8D7E6C" d="m604.69 346.793-11.158-6.07 32.318-4.544 11.16 6.073z"/>
        <path d="m594.851 340.961 9.92 5.396 30.918-4.343-9.92-5.396-30.918 4.343zm9.762 6.269-.123-.067-12.281-6.68 33.718-4.74.123.069 12.279 6.678-33.716 4.74z" fill="#000"/>
        <path fill="#C8C8CD" d="m669.496 267.898-.065 34.925-32.358 4.546.067-34.923z"/>
        <path d="m637.56 272.811-.065 34.075 31.515-4.43.064-34.073-31.514 4.428zm-.909 35.043.067-35.773.363-.054 32.837-4.614-.067 35.775-.36.051-32.84 4.615z" fill="#000"/>
        <path fill="#8D7E6C" d="m637.139 272.445-11.16-6.07 32.356-4.548 11.16 6.07z"/>
        <path d="m627.299 266.613 9.92 5.396 30.955-4.35-9.917-5.396-30.958 4.35zm9.761 6.269-.122-.067-12.282-6.68 33.759-4.746.122.069 12.28 6.68-33.757 4.744z" fill="#000"/>
        <path fill="#665B4E" d="m637.074 307.37-11.16-6.07.065-34.926 11.16 6.07z"/>
        <path d="m626.336 301.048 10.318 5.614.064-33.965-10.32-5.617-.062 33.968zm11.157 7.028-12-6.527.001-.252.065-35.63 12 6.529v.249l-.066 35.63z" fill="#000"/>
        <path fill="#665B4E" d="m572.204 421.147-11.16-6.07.065-34.926 11.16 6.07z"/>
        <path d="m561.465 414.826 10.32 5.614.063-33.968-10.32-5.614-.063 33.968zm11.16 7.028-12.003-6.527.002-.252.064-35.63 12.001 6.526v.25l-.064 35.633z" fill="#000"/>
        <path fill="#C8C8CD" d="m604.626 381.675-.064 34.925-32.359 4.546.067-34.923z"/>
        <path d="m572.69 386.587-.063 34.077 31.512-4.43.065-34.073-31.515 4.426zm-.907 35.045.065-35.775.363-.054 32.836-4.612-.066 35.773-.36.053-32.838 4.615z" fill="#000"/>
        <path fill="#8D7E6C" d="m572.269 386.223-11.16-6.07 32.357-4.549 11.159 6.07z"/>
        <path d="m562.43 380.391 9.919 5.394 30.956-4.348-9.918-5.396-30.958 4.35zm9.759 6.267-.12-.067-12.282-6.678 33.759-4.746.122.069 12.28 6.68-33.76 4.742z" fill="#000"/>
        <path fill="#665B4E" d="m604.69 346.793-11.158-6.07.064-34.883 11.16 6.07z"/>
        <path d="m593.952 340.472 10.32 5.614.062-33.926-10.32-5.612-.062 33.924zm11.16 7.027-12.004-6.526.003-.252.064-35.586 12 6.527v.249l-.064 35.588z" fill="#000"/>
        <path fill="#8D7E6C" d="m604.756 311.912-11.16-6.07 32.319-4.544 11.159 6.072z"/>
        <path d="m594.916 306.08 9.92 5.394 30.918-4.343-9.92-5.396-30.918 4.345zm9.76 6.267-.12-.067-12.282-6.678 33.718-4.742.123.07 12.279 6.68-33.718 4.737z" fill="#000"/>
        <path fill="#C8C8CD" d="m637.074 307.37-.065 34.882-32.318 4.542.064-34.883z"/>
        <path d="m605.176 312.276-.062 34.032 31.474-4.42.065-34.033-31.477 4.421zm-.906 35.003.064-35.733.363-.053 32.8-4.608-.067 35.733-.363.05-32.797 4.611z" fill="#000"/>
        <path fill="#C8C8CD" d="m572.204 421.147-.064 34.882-32.319 4.542.065-34.883z"/>
        <path d="m540.307 426.054-.063 34.03 31.475-4.42.064-34.03-31.476 4.42zm-.906 35 .064-35.73.363-.053 32.799-4.608-.067 35.73-.363.052-32.796 4.61z" fill="#000"/>
        <path fill="#8D7E6C" d="m539.886 425.689-11.16-6.07 32.319-4.544 11.16 6.072z"/>
        <path d="m530.047 419.856 9.92 5.397 30.917-4.344-9.92-5.396-30.917 4.343zm9.759 6.27-.12-.068-12.282-6.68 33.719-4.74.122.07 12.28 6.678-33.72 4.74z" fill="#000"/>
        <path fill="#665B4E" d="m539.821 460.57-11.16-6.07.065-34.883 11.16 6.07z"/>
        <path d="m529.083 454.25 10.32 5.612.062-33.923-10.32-5.615-.062 33.926zm11.159 7.025-12.003-6.524.002-.252.065-35.588 12 6.529v.25l-.064 35.585z" fill="#000"/>
        <path fill="#C8C8CD" d="m604.69 346.793-.064 34.883-32.358 4.546.067-34.88z"/>
        <path d="m572.754 351.707-.064 34.03 31.514-4.426.065-34.032-31.515 4.428zm-.908 35 .067-35.73.363-.054 32.837-4.615-.067 35.733-.36.052-32.84 4.614z" fill="#000"/>
        <path fill="#665B4E" d="m572.269 386.223-11.16-6.07.065-34.884 11.16 6.07z"/>
        <path d="m561.53 379.902 10.318 5.612.065-33.923-10.32-5.614-.063 33.925zm11.158 7.026-12.001-6.525.002-.252.065-35.588 12 6.53v.248l-.066 35.587z" fill="#000"/>
        <path fill="#8D7E6C" d="m572.334 351.341-11.16-6.07 32.357-4.548 11.159 6.07z"/>
        <path d="m562.495 345.509 9.919 5.396 30.956-4.35-9.92-5.396-30.955 4.35zm9.759 6.268-.12-.066-12.282-6.681 33.759-4.746.12.069 12.281 6.68-33.758 4.744z" fill="#000"/>
        <path fill="#8D7E6C" d="m507.464 465.118-11.16-6.07 32.357-4.549 11.16 6.071z"/>
        <path d="m497.625 459.287 9.92 5.393 30.956-4.35-9.92-5.393-30.956 4.35zm9.76 6.266-.12-.067-12.282-6.678 33.758-4.746.12.07 12.282 6.677-33.759 4.744z" fill="#000"/>
        <path fill="#C8C8CD" d="m539.821 460.57-.064 34.925-32.359 4.546.067-34.923z"/>
        <path d="m507.885 465.483-.065 34.074 31.515-4.427.064-34.075-31.514 4.428zm-.909 35.043.067-35.774.363-.053 32.837-4.615-.067 35.776-.36.053-32.84 4.613z" fill="#000"/>
        <path fill="#665B4E" d="m507.4 500.042-11.16-6.07.064-34.926 11.16 6.071z"/>
        <path d="m496.661 493.722 10.318 5.611.065-33.965-10.32-5.614-.063 33.968zm11.157 7.025-12-6.525.002-.251.064-35.63 12.001 6.526v.25l-.067 35.63z" fill="#000"/>
        <path fill="#C8C8CD" d="m637.139 272.445-.065 34.925-32.318 4.542.064-34.925z"/>
        <path d="m605.241 277.352-.064 34.075 31.476-4.423.065-34.073-31.477 4.421zm-.908 35.043.067-35.773.363-.053 32.799-4.608-.067 35.773-.363.053-32.8 4.608z" fill="#000"/>
        <path fill="#8D7E6C" d="m604.82 276.988-11.159-6.071 32.318-4.543 11.16 6.072z"/>
        <path d="m594.982 271.157 9.919 5.393 30.918-4.343-9.92-5.396-30.917 4.346zm9.759 6.266-.12-.067-12.282-6.678 33.719-4.742.122.07 12.28 6.68-33.72 4.737z" fill="#000"/>
        <path fill="#665B4E" d="m604.756 311.912-11.16-6.07.065-34.926 11.16 6.07z"/>
        <path d="m594.017 305.591 10.318 5.612.065-33.965-10.32-5.614-.063 33.967zm11.157 7.026-12-6.525.002-.251.064-35.631 12.001 6.527v.25l-.067 35.63z" fill="#000"/>
        <path fill="#C8C8CD" d="m572.269 386.223-.065 34.925-32.318 4.54.065-34.924z"/>
        <path d="m540.372 391.13-.065 34.075 31.477-4.423.062-34.075-31.474 4.423zm-.908 35.043.066-35.773.363-.053 32.797-4.61-.065 35.775-.362.053-32.8 4.608z" fill="#000"/>
        <path fill="#8D7E6C" d="m539.951 390.765-11.16-6.07 32.319-4.544 11.16 6.072z"/>
        <path d="m530.112 384.933 9.92 5.396 30.915-4.346-9.917-5.394-30.918 4.344zm9.76 6.268-.121-.067-12.281-6.68 33.718-4.74.123.07 12.279 6.678-33.719 4.74z" fill="#000"/>
        <path fill="#665B4E" d="m539.886 425.689-11.16-6.07.065-34.926 11.16 6.07z"/>
        <path d="m529.148 419.367 10.318 5.614.064-33.965-10.32-5.617-.062 33.968zm11.157 7.028-12-6.527.001-.251.065-35.631 12 6.529v.25l-.066 35.63z" fill="#000"/>
        <path fill="#665B4E" d="m572.334 351.341-11.16-6.07.065-34.883 11.16 6.07z"/>
        <path d="m561.596 345.02 10.318 5.614.064-33.926-10.32-5.612-.062 33.924zm11.157 7.027-12.001-6.527.002-.251.065-35.586 12 6.527v.249l-.066 35.588z" fill="#000"/>
        <path fill="#C8C8CD" d="m604.756 311.912-.065 34.882-32.358 4.546.067-34.88z"/>
        <path d="m572.82 316.824-.065 34.032 31.515-4.427.064-34.033-31.514 4.428zm-.909 35.003.067-35.733.363-.054 32.837-4.614-.067 35.733-.36.051-32.84 4.617z" fill="#000"/>
        <path fill="#8D7E6C" d="m572.399 316.46-11.16-6.071 32.356-4.548 11.16 6.07z"/>
        <path d="m562.559 310.628 9.92 5.394 30.955-4.35-9.917-5.393-30.958 4.35zm9.761 6.267-.122-.067-12.282-6.678 33.759-4.746.122.069 12.28 6.678-33.757 4.744z" fill="#000"/>
        <path fill="#C8C8CD" d="m539.886 425.689-.065 34.882-32.358 4.546.067-34.88z"/>
        <path d="m507.95 430.602-.065 34.03 31.515-4.428.065-34.03-31.515 4.428zm-.908 35 .067-35.73.362-.054 32.837-4.614-.066 35.73-.361.052-32.84 4.617z" fill="#000"/>
        <path fill="#8D7E6C" d="m507.529 430.236-11.16-6.07 32.357-4.548 11.16 6.07z"/>
        <path d="m497.69 424.404 9.919 5.396 30.956-4.35-9.918-5.396-30.958 4.35zm9.76 6.269-.122-.067-12.281-6.68 33.758-4.746.123.069 12.279 6.68-33.756 4.744z" fill="#000"/>
        <path fill="#665B4E" d="m507.464 465.118-11.16-6.07.065-34.883 11.16 6.07z"/>
        <path d="m496.726 458.798 10.318 5.612.065-33.924-10.32-5.614-.063 33.926zm11.157 7.025-12-6.525.002-.251.064-35.588 12.001 6.529v.249l-.067 35.586z" fill="#000"/>
        <path fill="#665B4E" d="m539.951 390.765-11.16-6.07.065-34.884 11.16 6.071z"/>
        <path d="m529.213 384.444 10.318 5.614.062-33.926-10.318-5.614-.062 33.926zm11.157 7.027-12-6.527.002-.251.064-35.589 12.001 6.53v.249l-.067 35.588z" fill="#000"/>
        <path fill="#8D7E6C" d="m540.016 355.883-11.16-6.07 32.319-4.544 11.16 6.073z"/>
        <path d="m530.176 350.05 9.92 5.396 30.918-4.343-9.92-5.396-30.918 4.343zm9.76 6.269-.121-.067-12.281-6.68 33.718-4.74.123.07 12.279 6.677-33.719 4.74z" fill="#000"/>
        <path fill="#C8C8CD" d="m572.334 351.341-.065 34.883-32.318 4.54.065-34.882z"/>
        <path d="m540.436 356.248-.062 34.032 31.474-4.423.065-34.03-31.477 4.42zm-.906 35.003.064-35.733.363-.054 32.8-4.608-.067 35.731-.363.051-32.797 4.613z" fill="#000"/>
        <path fill="#665B4E" d="m475.081 504.584-11.16-6.07.065-34.925 11.16 6.07z"/>
        <path d="m464.343 498.263 10.32 5.614.062-33.966-10.32-5.616-.062 33.968zm11.159 7.027-12.003-6.526.002-.252.065-35.63 12 6.528v.25l-.064 35.63z" fill="#000"/>
        <path fill="#8D7E6C" d="m475.146 469.66-11.16-6.07 32.32-4.544 11.158 6.073z"/>
        <path d="m465.307 463.828 9.92 5.396 30.917-4.345-9.92-5.394-30.917 4.343zm9.759 6.269-.12-.067-12.282-6.68 33.719-4.74.122.07 12.28 6.677-33.72 4.74z" fill="#000"/>
        <path fill="#C8C8CD" d="m507.464 465.118-.064 34.925-32.319 4.541.065-34.925z"/>
        <path d="m475.566 470.026-.062 34.075 31.475-4.426.064-34.072-31.477 4.423zm-.906 35.043.065-35.773.363-.054 32.799-4.61-.067 35.773-.363.054-32.797 4.61z" fill="#000"/>
        <path fill="#8D7E6C" d="m572.463 281.535-11.159-6.07 32.356-4.548 11.16 6.07z"/>
        <path d="m562.624 275.702 9.92 5.396 30.955-4.35-9.917-5.393-30.958 4.347zm9.76 6.269-.121-.067-12.281-6.68 33.758-4.744.123.069 12.279 6.678-33.759 4.744z" fill="#000"/>
        <path fill="#665B4E" d="m572.399 316.46-11.16-6.071.065-34.925 11.16 6.07z"/>
        <path d="m561.66 310.14 10.32 5.611.062-33.965-10.32-5.617-.062 33.97zm11.16 7.025-12.004-6.525.002-.251.065-35.633 12 6.529v.25l-.064 35.63z" fill="#000"/>
        <path fill="#C8C8CD" d="m604.82 276.988-.064 34.925-32.358 4.545.066-34.923z"/>
        <path d="m572.884 281.9-.063 34.075 31.513-4.43.064-34.073-31.514 4.428zm-.906 35.043.064-35.773.363-.053 32.837-4.615-.067 35.775-.36.051-32.837 4.615z" fill="#000"/>
        <path fill="#C8C8CD" d="m539.951 390.765-.065 34.925-32.358 4.545.067-34.922z"/>
        <path d="m508.014 395.678-.062 34.075 31.512-4.43.065-34.073-31.515 4.428zm-.906 35.043.065-35.773.363-.053 32.837-4.615-.067 35.775-.36.051-32.838 4.615z" fill="#000"/>
        <path fill="#665B4E" d="m507.529 430.236-11.16-6.07.065-34.925 11.16 6.07z"/>
        <path d="m496.79 423.915 10.32 5.614.063-33.965-10.32-5.617-.063 33.968zm11.16 7.028-12.003-6.527.002-.252.064-35.63 12.001 6.529v.25l-.064 35.63z" fill="#000"/>
        <path fill="#8D7E6C" d="m507.594 395.312-11.16-6.07 32.357-4.548 11.159 6.07z"/>
        <path d="m497.755 389.48 9.919 5.396 30.956-4.35-9.917-5.395-30.958 4.35zm9.759 6.27-.12-.068-12.282-6.68 33.759-4.746.122.069 12.28 6.68-33.76 4.744z" fill="#000"/>
        <path fill="#C8C8CD" d="m572.399 316.46-.065 34.882-32.318 4.541.064-34.883z"/>
        <path d="m540.501 321.367-.064 34.03 31.476-4.42.065-34.033-31.477 4.423zm-.908 35.001.067-35.73.362-.054 32.8-4.61-.067 35.733-.363.05-32.8 4.611z" fill="#000"/>
        <path fill="#8D7E6C" d="m540.08 321.001-11.159-6.07 32.319-4.544 11.159 6.073z"/>
        <path d="m530.241 315.17 9.92 5.396 30.918-4.346-9.92-5.394-30.918 4.344zm9.76 6.268-.12-.067-12.282-6.68 33.718-4.74.123.07 12.279 6.678-33.719 4.74z" fill="#000"/>
        <path fill="#665B4E" d="m540.016 355.883-11.16-6.07.065-34.883 11.16 6.07z"/>
        <path d="m529.277 349.56 10.318 5.615.065-33.923-10.32-5.615-.063 33.924zm11.157 7.029-12-6.527.002-.252.064-35.586 12.001 6.529v.25l-.067 35.586z" fill="#000"/>
        <path fill="#8D7E6C" d="m475.211 434.778-11.16-6.07 32.319-4.544 11.16 6.073z"/>
        <path d="m465.372 428.946 9.92 5.396 30.917-4.343-9.919-5.396-30.918 4.343zm9.759 6.268-.12-.067-12.281-6.68 33.718-4.74.122.07 12.28 6.678-33.719 4.74z" fill="#000"/>
        <path fill="#665B4E" d="m475.146 469.66-11.16-6.07.065-34.883 11.16 6.07z"/>
        <path d="m464.408 463.339 10.318 5.614.064-33.925-10.32-5.614-.062 33.925zm11.157 7.028-12-6.527.001-.252.065-35.588 12 6.53v.248l-.066 35.589z" fill="#000"/>
        <path fill="#C8C8CD" d="m507.529 430.236-.065 34.883-32.318 4.541.065-34.883z"/>
        <path d="m475.632 435.143-.065 34.033 31.477-4.424.065-34.03-31.477 4.421zm-.909 35.003.067-35.733.363-.053 32.8-4.608-.068 35.73-.362.052-32.8 4.612z" fill="#000"/>
        <path fill="#3B322E" d="m507.659 360.43-11.16-6.07 32.356-4.548 11.16 6.07z"/>
        <path d="m497.82 354.598 9.92 5.396 30.955-4.35-9.92-5.396-30.955 4.35zm9.759 6.268-.12-.066-12.282-6.68 33.759-4.747.12.07 12.28 6.68-33.757 4.743z" fill="#000"/>
        <path fill="#000" d="m540.016 355.883-.065 34.883-32.358 4.545.067-34.88z"/>
        <path d="m508.08 360.796-.065 34.032 31.515-4.428.064-34.032-31.514 4.428zm-.909 35.003.067-35.734.363-.053 32.837-4.615-.067 35.733-.36.052-32.84 4.617z" fill="#000"/>
        <path fill="#2A2421" d="m507.594 395.312-11.16-6.07.065-34.883 11.16 6.07z"/>
        <path d="m496.856 388.991 10.318 5.614.064-33.925-10.32-5.614-.062 33.925zm11.157 7.028-12.001-6.527.002-.252.065-35.588 12 6.53v.249l-.066 35.588z" fill="#000"/>
        <path fill="#C8C8CD" d="m475.146 469.66-.064 34.925-32.319 4.541.065-34.925z"/>
        <path d="m443.25 474.567-.065 34.075 31.476-4.423.063-34.073-31.475 4.421zm-.91 35.043.068-35.773.362-.053 32.797-4.608-.064 35.773-.363.053-32.8 4.608z" fill="#000"/>
        <path fill="#8D7E6C" d="m442.828 474.202-11.159-6.07 32.316-4.544 11.162 6.073z"/>
        <path d="m432.99 468.37 9.919 5.395 30.916-4.343-9.918-5.396-30.918 4.343zm9.758 6.268-.12-.067-12.281-6.68 33.718-4.74.123.07 12.279 6.678-33.719 4.739z" fill="#000"/>
        <path fill="#665B4E" d="m442.763 509.126-11.159-6.07.065-34.926 11.159 6.071z"/>
        <path d="m432.025 502.804 10.318 5.614.065-33.965-10.32-5.617-.063 33.968zm11.157 7.028-12-6.527.002-.252.064-35.63 12.001 6.529v.25l-.067 35.63z" fill="#000"/>
        <path fill="#C8C8CD" d="m572.463 281.535-.064 34.925-32.318 4.541.064-34.925z"/>
        <path d="m540.566 286.441-.064 34.077 31.477-4.425.062-34.073-31.475 4.421zm-.908 35.046.067-35.776.363-.053 32.797-4.608-.065 35.773-.363.053-32.799 4.61z" fill="#000"/>
        <path fill="#665B4E" d="m540.08 321.001-11.159-6.07.065-34.925 11.16 6.07z"/>
        <path d="m529.342 314.68 10.318 5.615.065-33.968-10.32-5.614-.063 33.968zm11.158 7.028-12.001-6.527.002-.251.064-35.63 12.001 6.526v.25l-.066 35.632z" fill="#000"/>
        <path fill="#8D7E6C" d="m540.145 286.077-11.159-6.07 32.318-4.544 11.16 6.073z"/>
        <path d="m530.305 280.246 9.92 5.393 30.918-4.343-9.92-5.396-30.918 4.346zm9.762 6.266-.123-.067-12.281-6.678 33.719-4.742.122.07 12.279 6.68-33.716 4.737zM507.594 395.312l-.065 34.925-32.318 4.541.065-34.925z" fill="#000"/>
        <path d="m475.697 400.22-.065 34.074 31.477-4.423.063-34.072-31.475 4.42zm-.908 35.043.066-35.774.363-.053 32.797-4.608-.064 35.773-.363.054-32.8 4.608z" fill="#000"/>
        <path fill="#2A2421" d="m475.211 434.778-11.16-6.07.065-34.925 11.16 6.07z"/>
        <path d="m464.473 428.456 10.318 5.614.064-33.965-10.32-5.617-.062 33.968zm11.157 7.028-12-6.527.002-.251.064-35.631 12 6.529v.25l-.066 35.63z" fill="#000"/>
        <path fill="#3B322E" d="m475.276 399.854-11.16-6.07 32.319-4.544 11.159 6.073z"/>
        <path d="m465.436 394.022 9.92 5.396 30.917-4.343-9.919-5.396-30.918 4.343zm9.761 6.268-.122-.066-12.281-6.68 33.718-4.74.123.069 12.279 6.678-33.717 4.74z" fill="#000"/>
        <path fill="#C8C8CD" d="m540.08 321.001-.064 34.883-32.358 4.546.066-34.88z"/>
        <path d="m508.144 325.913-.063 34.032 31.513-4.427.064-34.03-31.514 4.425zm-.906 35.003.064-35.733.363-.053 32.837-4.613-.067 35.73-.36.052-32.837 4.617z" fill="#000"/>
        <path fill="#665B4E" d="m507.659 360.43-11.16-6.07.065-34.883 11.16 6.07z"/>
        <path d="m496.92 354.109 10.319 5.614.062-33.926-10.318-5.612-.062 33.924zm11.158 7.027-12-6.526.001-.252.065-35.586 12 6.527v.249l-.066 35.588z" fill="#000"/>
        <path fill="#8D7E6C" d="m507.723 325.549-11.159-6.07 32.356-4.549 11.16 6.07z"/>
        <path d="m497.884 319.717 9.92 5.394 30.955-4.347-9.917-5.396-30.958 4.35zm9.759 6.267-.12-.067-12.282-6.678L529 314.493l.122.069 12.28 6.68-33.759 4.742z" fill="#000"/>
        <path fill="#C8C8CD" d="m475.211 434.778-.065 34.883-32.318 4.541.065-34.883z"/>
        <path d="m443.313 439.685-.062 34.032 31.474-4.421.065-34.032-31.477 4.42zm-.906 35.003.065-35.733.363-.054 32.799-4.608-.067 35.733-.363.051-32.797 4.61z" fill="#000"/>
        <path fill="#8D7E6C" d="m442.893 439.32-11.16-6.07 32.317-4.544 11.161 6.073z"/>
        <path d="m433.053 433.489 9.92 5.394 30.918-4.343-9.92-5.396-30.918 4.345zm9.76 6.266-.12-.066-12.282-6.679 33.719-4.741.122.069 12.279 6.68-33.718 4.737z" fill="#000"/>
        <path fill="#665B4E" d="m442.828 474.202-11.159-6.07.065-34.883 11.159 6.07z"/>
        <path d="m432.09 467.88 10.318 5.614.063-33.925-10.318-5.612-.063 33.923zm11.158 7.028-12.001-6.527.002-.251.064-35.587 12.001 6.527v.25l-.066 35.588zM507.659 360.43l-.065 34.883-32.318 4.541.064-34.882z" fill="#000"/>
        <path d="m475.761 365.337-.062 34.032 31.474-4.42.065-34.033-31.477 4.42zm-.906 35.003.065-35.733.362-.054 32.8-4.608-.067 35.733-.363.052-32.797 4.61z" fill="#000"/>
        <path fill="#2A2421" d="m475.276 399.854-11.16-6.07.065-34.883 11.16 6.07z"/>
        <path d="m464.537 393.533 10.32 5.614.063-33.926-10.32-5.612-.063 33.924zm11.16 7.027-12.004-6.527.003-.251.064-35.586 12.001 6.527v.249l-.065 35.588z" fill="#000"/>
        <path fill="#3B322E" d="m475.34 364.972-11.159-6.07 32.318-4.544 11.16 6.073z"/>
        <path d="m465.501 359.141 9.92 5.394 30.918-4.343-9.92-5.396-30.918 4.345zm9.76 6.267-.12-.067-12.282-6.678 33.718-4.742.123.069 12.279 6.68-33.719 4.738z" fill="#000"/>
        <path fill="#8D7E6C" d="m507.788 290.625-11.16-6.071 32.357-4.548 11.16 6.07z"/>
        <path d="m497.95 284.794 9.918 5.393 30.956-4.35-9.919-5.393-30.956 4.35zm9.758 6.266-.12-.067-12.281-6.678 33.758-4.746.12.069 12.282 6.678-33.759 4.744z" fill="#000"/>
        <path fill="#665B4E" d="m507.723 325.549-11.159-6.07.065-34.926 11.159 6.07z"/>
        <path d="m496.985 319.228 10.318 5.612.064-33.965-10.32-5.614-.062 33.967zm11.157 7.026-12-6.525.001-.251.065-35.631 12 6.527v.25l-.066 35.63z" fill="#000"/>
        <path fill="#C8C8CD" d="m540.145 286.077-.064 34.925-32.359 4.546.067-34.923z"/>
        <path d="m508.209 290.99-.065 34.074 31.515-4.428.065-34.074-31.515 4.427zm-.908 35.042.066-35.773.363-.053 32.837-4.615-.067 35.775-.36.054-32.84 4.612z" fill="#000"/>
        <path fill="#665B4E" d="m442.893 439.32-11.16-6.07.065-34.925 11.16 6.07z"/>
        <path d="m432.154 433 10.318 5.612.065-33.966-10.32-5.614-.063 33.968zm11.158 7.025-12.001-6.524.002-.252.065-35.63 12 6.526v.25l-.066 35.63z" fill="#000"/>
        <path fill="#C8C8CD" d="m475.276 399.854-.065 34.925-32.318 4.541.064-34.925z"/>
        <path d="m443.378 404.76-.064 34.075 31.477-4.423.064-34.072-31.477 4.42zm-.908 35.044.067-35.773.363-.054 32.799-4.608-.067 35.773-.363.054-32.799 4.608z" fill="#000"/>
        <path fill="#8D7E6C" d="m442.958 404.396-11.16-6.07 32.317-4.544 11.161 6.073z"/>
        <path d="m433.119 398.565 9.919 5.394 30.918-4.343-9.92-5.396-30.917 4.345zm9.759 6.267-.12-.067-12.282-6.678 33.719-4.742.122.069 12.28 6.68-33.72 4.738zM507.723 325.549l-.064 34.882-32.318 4.542.064-34.883z" fill="#000"/>
        <path d="m475.826 330.457-.064 34.03 31.477-4.421.062-34.033-31.475 4.424zm-.908 35 .067-35.73.363-.054 32.797-4.61-.065 35.733-.363.051-32.799 4.61z" fill="#000"/>
        <path fill="#3B322E" d="m475.405 330.09-11.16-6.07 32.32-4.543 11.159 6.072z"/>
        <path d="m465.565 324.259 9.92 5.396 30.918-4.346-9.92-5.393-30.918 4.343zm9.762 6.268-.123-.066-12.281-6.68 33.718-4.74.123.069 12.279 6.678-33.716 4.74z" fill="#000"/>
        <path fill="#2A2421" d="m475.34 364.972-11.159-6.07.065-34.883 11.16 6.07z"/>
        <path d="m464.602 358.652 10.318 5.612.065-33.923-10.32-5.614-.063 33.925zm11.157 7.026-12-6.525.002-.252.064-35.588 12.001 6.53v.248l-.067 35.587z" fill="#000"/>
        <path fill="#C8C8CD" d="m442.893 439.32-.064 34.883-32.359 4.546.065-34.88z"/>
        <path d="m410.957 444.233-.065 34.032 31.515-4.428.064-34.032-31.514 4.428zm-.908 35.002.066-35.733.363-.053 32.837-4.615-.067 35.733-.36.052-32.84 4.616z" fill="#000"/>
        <path fill="#8D7E6C" d="m410.536 443.868-11.16-6.07 32.356-4.549 11.162 6.07z"/>
        <path d="m400.696 438.037 9.92 5.394 30.955-4.35-9.917-5.394-30.958 4.35zm9.761 6.266-.122-.066-12.281-6.679 33.758-4.746.123.07 12.279 6.678-33.757 4.743z" fill="#000"/>
        <path fill="#665B4E" d="m410.47 478.75-11.158-6.071.064-34.883 11.16 6.07z"/>
        <path d="m399.733 472.428 10.318 5.614.064-33.925-10.32-5.612-.062 33.923zm11.157 7.028-12-6.527.001-.252.065-35.586 12 6.527v.25l-.066 35.588z" fill="#000"/>
        <path fill="#C8C8CD" d="m540.21 251.195-.064 34.883-32.359 4.546.067-34.88z"/>
        <path d="m508.274 256.109-.064 34.03 31.514-4.428.065-34.03-31.515 4.428zm-.908 35 .067-35.73.362-.054 32.837-4.614-.066 35.73-.361.052-32.84 4.617z" fill="#000"/>
        <path fill="#665B4E" d="m507.853 255.743-11.16-6.07 32.357-4.549 11.16 6.07z"/>
        <path d="m498.013 249.911 9.92 5.396 30.956-4.35-9.918-5.396-30.958 4.35zm9.762 6.269-.123-.067-12.281-6.68 33.758-4.747.123.07 12.279 6.68-33.756 4.744z" fill="#000"/>
        <path fill="#2A2421" d="m507.788 290.625-11.16-6.071.065-34.883 11.16 6.07z"/>
        <path d="m497.05 284.304 10.318 5.612.065-33.923-10.32-5.614-.063 33.925zm11.157 7.026-12-6.525.002-.251.064-35.589 12.001 6.53v.249l-.067 35.586z" fill="#000"/>
        <path fill="#2A2421" d="m442.958 404.396-11.16-6.07.065-34.883 11.16 6.07z"/>
        <path d="m432.22 398.076 10.318 5.612.064-33.923-10.32-5.614-.062 33.925zm11.157 7.026-12.001-6.525.002-.252.065-35.588 12 6.53v.248l-.066 35.587z" fill="#000"/>
        <path fill="#3B322E" d="m443.023 369.514-11.16-6.07 32.316-4.544 11.162 6.073z"/>
        <path d="m433.183 363.683 9.92 5.396 30.917-4.346-9.92-5.393-30.917 4.343zm9.761 6.268-.122-.067-12.282-6.68 33.719-4.74.122.07 12.28 6.678-33.717 4.74z" fill="#000"/>
        <path fill="#000" d="m475.34 364.972-.064 34.883-32.318 4.541.064-34.882z"/>
        <path d="m443.444 369.88-.065 34.03 31.477-4.42.062-34.033-31.474 4.423zm-.909 35.001.067-35.73.363-.054 32.797-4.61-.065 35.733-.363.051-32.799 4.61z" fill="#000"/>
        <path fill="#8D7E6C" d="m475.47 295.167-11.16-6.07 32.32-4.544 11.159 6.072z"/>
        <path d="m465.63 289.335 9.92 5.396 30.918-4.346-9.92-5.393-30.917 4.343zm9.76 6.268-.12-.066-12.282-6.68 33.719-4.74.122.069 12.28 6.678-33.72 4.74z" fill="#000"/>
        <path fill="#665B4E" d="m475.405 330.09-11.16-6.07.065-34.925 11.16 6.07z"/>
        <path d="m464.666 323.77 10.32 5.614.063-33.966-10.32-5.616-.063 33.968zm11.16 7.027-12.003-6.527.002-.251.065-35.63 12 6.528v.25l-.064 35.63z" fill="#000"/>
        <path fill="#C8C8CD" d="m507.788 290.625-.064 34.925-32.319 4.54.065-34.924z"/>
        <path d="m475.89 295.533-.062 34.074 31.475-4.425.064-34.073-31.477 4.424zm-.906 35.043.065-35.774.363-.053 32.799-4.61-.067 35.773-.363.053-32.797 4.61z" fill="#000"/>
        <path fill="#C8C8CD" d="m442.958 404.396-.065 34.925-32.358 4.546.065-34.923z"/>
        <path d="m411.02 409.309-.061 34.074 31.512-4.43.065-34.072-31.515 4.428zm-.905 35.043.064-35.774.363-.053 32.837-4.615-.066 35.776-.361.051-32.837 4.615z" fill="#000"/>
        <path fill="#665B4E" d="m410.536 443.868-11.16-6.07.065-34.926 11.16 6.07z"/>
        <path d="m399.797 437.548 10.32 5.612.062-33.966-10.32-5.616-.062 33.97zm11.16 7.025-12.004-6.525.003-.251.064-35.633 12 6.53v.248l-.064 35.631z" fill="#000"/>
        <path fill="#8D7E6C" d="m410.6 408.944-11.159-6.071 32.356-4.548 11.162 6.07z"/>
        <path d="m400.761 403.11 9.92 5.397 30.955-4.35-9.917-5.394-30.958 4.348zm9.76 6.27-.12-.067-12.282-6.68 33.758-4.745.123.07 12.279 6.678-33.759 4.743z" fill="#000"/>
        <path fill="#C8C8CD" d="m475.405 330.09-.064 34.883-32.319 4.542.065-34.883z"/>
        <path d="m443.508 334.998-.063 34.032 31.475-4.423.065-34.03-31.477 4.42zM442.602 370l.064-35.733.363-.054 32.8-4.608-.068 35.731-.362.051-32.797 4.613z" fill="#000"/>
        <path fill="#8D7E6C" d="m443.087 334.633-11.159-6.07 32.316-4.544 11.162 6.072z"/>
        <path d="m433.248 328.8 9.92 5.396 30.917-4.343-9.919-5.396-30.918 4.343zm9.76 6.269-.121-.067-12.281-6.68 33.718-4.74.123.07 12.279 6.677-33.719 4.74z" fill="#000"/>
        <path fill="#665B4E" d="m443.023 369.514-11.16-6.07.065-34.883 11.16 6.07z"/>
        <path d="m432.284 363.194 10.32 5.614.062-33.926-10.32-5.614-.062 33.926zm11.16 7.027-12.004-6.527.002-.251.065-35.589 12 6.53v.249l-.064 35.588z" fill="#000"/>
        <path fill="#8D7E6C" d="m378.218 448.41-11.16-6.07 32.317-4.544 11.161 6.073z"/>
        <path d="m368.379 442.578 9.919 5.396 30.918-4.345-9.92-5.394-30.917 4.343zm9.759 6.269-.12-.067-12.282-6.68 33.719-4.74.122.07 12.28 6.677-33.72 4.74z" fill="#000"/>
        <path fill="#665B4E" d="m378.153 483.291-11.16-6.07.065-34.883 11.16 6.07z"/>
        <path d="m367.414 476.972 10.32 5.612.063-33.924-10.32-5.614-.063 33.926zm11.16 7.025-12.003-6.525.002-.251.065-35.589 12 6.53v.249l-.064 35.586z" fill="#000"/>
        <path fill="#C8C8CD" d="m410.536 443.868-.065 34.882-32.318 4.542.064-34.883z"/>
        <path d="m378.638 448.776-.062 34.03 31.475-4.42.064-34.033-31.477 4.423zm-.906 35 .065-35.73.363-.054 32.799-4.61-.067 35.733-.363.051-32.797 4.61z" fill="#000"/>
        <path fill="#C8C8CD" d="m443.023 369.514-.065 34.883-32.358 4.546.064-34.88z"/>
        <path d="m411.086 374.426-.064 34.032 31.514-4.427.065-34.03-31.515 4.425zm-.908 35.003.067-35.733.363-.053 32.837-4.613-.067 35.731-.36.051-32.84 4.617z" fill="#000"/>
        <path fill="#665B4E" d="m410.6 408.944-11.159-6.071.065-34.883 11.16 6.07z"/>
        <path d="m399.862 402.622 10.318 5.614.065-33.926-10.32-5.612-.063 33.924zm11.157 7.027-12-6.526.002-.252.064-35.586 12.001 6.527v.25l-.067 35.587z" fill="#000"/>
        <path fill="#8D7E6C" d="m410.665 374.062-11.159-6.07 32.356-4.548 11.162 6.07z"/>
        <path d="m400.826 368.23 9.92 5.394 30.956-4.347-9.92-5.396-30.956 4.35zm9.76 6.267-.12-.067-12.282-6.678 33.759-4.746.12.069 12.281 6.68-33.758 4.742z" fill="#000"/>
        <path fill="#C8C8CD" d="m475.47 295.167-.064 34.925-32.319 4.54.065-34.924z"/>
        <path d="m443.573 300.074-.065 34.075 31.477-4.424.063-34.072-31.475 4.421zm-.908 35.043.067-35.773.362-.054 32.797-4.608-.064 35.774-.363.053-32.8 4.608z" fill="#000"/>
        <path fill="#665B4E" d="m443.087 334.633-11.159-6.07.065-34.926 11.159 6.07z"/>
        <path d="m432.349 328.31 10.318 5.615.065-33.966-10.32-5.616-.063 33.968zm11.157 7.029-12-6.527.002-.252.064-35.63 12.001 6.529v.249l-.067 35.63z" fill="#000"/>
        <path fill="#8D7E6C" d="m443.152 299.709-11.159-6.071 32.316-4.543 11.162 6.072z"/>
        <path d="m433.313 293.876 9.92 5.396 30.915-4.343-9.917-5.396-30.918 4.343zm9.76 6.269-.12-.067-12.282-6.68 33.718-4.74.123.07 12.279 6.678-33.719 4.739z" fill="#000"/>
        <path fill="#C8C8CD" d="m410.6 408.944-.064 34.925-32.318 4.54.064-34.924z"/>
        <path d="m378.704 413.85-.065 34.077 31.477-4.426.062-34.072-31.474 4.42zm-.909 35.045.067-35.775.363-.054 32.797-4.608-.065 35.773-.363.054-32.799 4.61z" fill="#000"/>
        <path fill="#665B4E" d="m378.218 448.41-11.16-6.07.065-34.926 11.16 6.07z"/>
        <path d="m367.48 442.09 10.318 5.613.064-33.968-10.32-5.614-.062 33.968zm11.157 7.027-12.001-6.527.002-.252.065-35.63 12 6.527v.249l-.066 35.633z" fill="#000"/>
        <path fill="#8D7E6C" d="m378.283 413.486-11.16-6.07 32.317-4.544 11.161 6.072z"/>
        <path d="m368.444 407.654 9.92 5.394 30.915-4.343-9.917-5.396-30.918 4.345zm9.759 6.267-.12-.067-12.282-6.678 33.719-4.742.122.07 12.28 6.68-33.72 4.737z" fill="#000"/>
        <path fill="#8D7E6C" d="m410.73 339.18-11.16-6.07 32.357-4.548 11.161 6.07z"/>
        <path d="m400.89 333.348 9.92 5.396 30.956-4.35-9.917-5.396-30.959 4.35zm9.76 6.268-.12-.066-12.282-6.68 33.759-4.747.122.07 12.28 6.68-33.76 4.743z" fill="#000"/>
        <path fill="#665B4E" d="m410.665 374.062-11.159-6.07.065-34.883 11.159 6.07z"/>
        <path d="m399.927 367.741 10.318 5.612.063-33.923-10.318-5.614-.063 33.925zm11.158 7.026-12.001-6.525.002-.251.065-35.589 12 6.53v.249l-.066 35.586z" fill="#000"/>
        <path fill="#C8C8CD" d="m443.087 334.633-.064 34.882-32.358 4.546.064-34.88z"/>
        <path d="m411.15 339.546-.062 34.03 31.515-4.426.062-34.032-31.515 4.428zm-.906 35 .065-35.73.363-.054 32.837-4.615-.065 35.733-.363.052-32.837 4.614z" fill="#000"/>
        <path fill="#C8C8CD" d="m410.665 374.062-.064 34.883-32.318 4.54.064-34.882z"/>
        <path d="m378.768 378.97-.063 34.03 31.475-4.421.064-34.033-31.476 4.424zm-.906 35 .064-35.73.363-.054 32.8-4.61-.068 35.733-.362.051-32.797 4.61z" fill="#000"/>
        <path fill="#8D7E6C" d="m378.348 378.604-11.16-6.07 32.316-4.544 11.162 6.073z"/>
        <path d="m368.508 372.772 9.92 5.396 30.917-4.346-9.92-5.393-30.917 4.343zm9.759 6.268-.12-.066-12.281-6.68 33.718-4.74.122.069 12.28 6.678-33.719 4.74z" fill="#000"/>
        <path fill="#665B4E" d="m378.283 413.486-11.16-6.07.065-34.884 11.16 6.07z"/>
        <path d="m367.545 407.165 10.318 5.612.062-33.923-10.318-5.614-.062 33.925zm11.157 7.026-12-6.525.001-.252.065-35.588 12 6.53v.248l-.066 35.587z" fill="#000"/>
        <path fill="#C8C8CD" d="m507.853 255.743-.064 34.882-32.319 4.542.065-34.883z"/>
        <path d="m475.956 260.65-.065 34.032 31.477-4.423.064-34.03-31.476 4.421zm-.909 35.003.067-35.733.363-.053 32.8-4.608-.068 35.73-.363.052-32.799 4.612z" fill="#000"/>
        <path fill="#2A2421" d="m475.47 295.167-11.16-6.07.065-34.884 11.16 6.07z"/>
        <path d="m464.732 288.846 10.318 5.614.064-33.926-10.32-5.614-.062 33.926zm11.157 7.027-12.001-6.526.002-.252.065-35.588 12 6.529v.249l-.066 35.588z" fill="#000"/>
        <path fill="#665B4E" d="m475.535 260.285-11.16-6.07 32.319-4.544 11.16 6.073z"/>
        <path d="m465.696 254.452 9.92 5.396 30.917-4.343-9.92-5.396-30.917 4.343zm9.759 6.269-.12-.067-12.282-6.68 33.719-4.74.122.07 12.28 6.678-33.72 4.739z" fill="#000"/>
        <path fill="#C8C8CD" d="m475.535 260.285-.064 34.883-32.319 4.54.065-34.882z"/>
        <path d="m443.638 265.191-.064 34.033 31.474-4.421.065-34.033-31.475 4.421zm-.908 35.003.067-35.733.363-.053 32.796-4.608-.066 35.733-.36.051-32.8 4.61z" fill="#000"/>
        <path fill="#665B4E" d="m443.152 299.709-11.159-6.071.065-34.883 11.159 6.07z"/>
        <path d="m432.414 293.387 10.318 5.614.065-33.925-10.32-5.612-.063 33.923zm11.157 7.028-12-6.527.002-.252.064-35.586 12.001 6.527v.25l-.067 35.588z" fill="#000"/>
        <path fill="#665B4E" d="m443.217 264.827-11.16-6.07 32.317-4.544 11.162 6.072z"/>
        <path d="m433.377 258.996 9.92 5.393 30.918-4.343-9.92-5.396-30.918 4.346zm9.762 6.266-.123-.067-12.281-6.678 33.718-4.741.123.069 12.279 6.68-33.716 4.737z" fill="#000"/>
        <path fill="#C8C8CD" d="m410.73 339.18-.065 34.883-32.318 4.541.065-34.883z"/>
        <path d="m378.833 344.087-.065 34.032 31.477-4.423.062-34.03-31.474 4.42zm-.908 35.003.066-35.733.363-.054 32.797-4.608-.064 35.731-.363.051-32.8 4.613z" fill="#000"/>
        <path fill="#665B4E" d="m378.348 378.604-11.16-6.07.065-34.883 11.16 6.07z"/>
        <path d="m367.609 372.283 10.318 5.614.064-33.926-10.32-5.612-.062 33.924zm11.157 7.027-12-6.526.002-.252.064-35.586 12 6.527v.249l-.066 35.588z" fill="#000"/>
        <path fill="#8D7E6C" d="m378.412 343.722-11.159-6.07 32.316-4.544 11.162 6.073z"/>
        <path d="m368.573 337.891 9.92 5.394 30.915-4.343-9.917-5.396-30.918 4.345zm9.76 6.267-.121-.067-12.281-6.678 33.718-4.742.123.069 12.279 6.68-33.719 4.738z" fill="#000"/>
    </g>
</svg>
