<svg width="1872" height="627" viewBox="0 0 1872 627" xmlns="http://www.w3.org/2000/svg">
    <g fill="none" fill-rule="evenodd">
        <path d="M0 0h1872v627H0z"/>
        <path d="M77.26 410.393c0 75.317 44.919 149.755 132.84 149.755 95.813 0 135.094-62.673 135.094-153.068 0-89.842-31.307-150.263-132.38-150.263-91.343 0-135.553 76.173-135.553 153.576zM417.198 6.198V494.06c0 39.27 0 79.344.792 118.613h-72.795c-2.128-17.366-2.923-41.993-3.172-62.289-20.284 34.772-54.557 73.581-147.6 73.581C78.3 623.965 0 535.705 0 411.962c0-134.228 99.335-218.71 203.854-218.71 94.3 0 126.815 43.526 138.168 63.016V6.198h75.175zM1514.453 372.025c-3.464-48.663-28.85-119.32-128.293-119.32-82.406 0-122.822 52.352-129.795 119.32h258.088zM1254.778 426.3c4.259 78.6 56.32 136.178 137.855 136.178 62.829 0 97.565-26.158 119.191-65.86h74.923c-21.575 60.611-78.255 127.347-198.166 127.347-143.566 0-209.02-106.805-209.02-214.125 0-123.327 80.73-216.589 207.142-216.589 152.304 0 205.89 113.52 205.89 212.976 0 6.877 0 12.182-.25 20.073h-337.565zM1634.622 315.513c0-36.806 0-74.162-.793-110.968h72.838c1.293 12.012 2.878 54.929 2.878 91.957 26.007-62.622 84.157-103.76 162.455-102.996v72.984c-92.244-1.062-162.455 55.456-162.455 175.683v170.5h-74.923v-297.16zM1021.212 264.717v347.96h75.175v-347.96h93.88v-60.171h-93.88v-51.04c0-66.203 15.738-89.853 69.51-89.853 10.101 0 25.341 1.104 36.028 3.566V4.586C1191.158 1.358 1174.34 0 1154.512 0c-93.489 0-133.3 56.89-133.3 149.343v55.203H852.568v-51.04c0-66.203 15.739-89.853 69.508-89.853 10.104 0 25.341 1.104 36.031 3.566V4.586C947.339 1.358 930.519 0 910.694 0c-93.49 0-133.3 56.89-133.3 149.343v463.333h75.174v-347.96h168.644z" fill="#000"/>
        <path fill="#FFF" d="m649.652 17.097 3.87 6.449-19.345 19.774-15.478 63.626-3.437 46.43-26.655 40.84-21.066-4.73 28.116-39.12-3.611-39.98 21.925-76.952zM657.82 7.21l-4.298 9.887 7.308 4.729 19.089 1.235 11.433 6.934 5.59-11.695-17.023-11.696zM513.69 515.767l1.718-10.66 19.605-5.504 17.195 6.534 13.069 8.254 6.19 10.663-32.329 52.275-15.475 16.164-5.158 17.884-8.942-4.815 4.47-25.105z"/>
        <path fill="#FFF" d="m626.954 91.126-4.815 11.005-3.44 50.9-8.942 17.884-39.377 158.201 12.553-2.061 15.734 4.39 18.886 14.182 12.381-46.774 49.985-194.658-2.754-8.254-20.633-11.006h-17.197z"/>
        <path d="m515.058 602.29 1.046-6.872 3.141.659-4.187 6.213zm47.124-75.896.027.04-38.932 59.901-3.567-.747-.652-76.195.085-2.043 19.63-4.043 20.947 8.978 5.322 9.637-2.86 4.472zm61.015-373.568.084-.123 2.807-48.059 2.616-10.698 13.28-4.04 21.8 3.114 11.761 7.669-60.086 238.248-14.198-9.307-19.679-7.085-6.273 2.662 47.888-172.381zm-37.577 37.358-9.516-2.22 24.658-33.68-2.115-41.57 21.186-75.14 31.526-16.998-19.948 18.662-15.498 63.405-.114.457-2.696 46.175-27.483 40.909zm73.41-179.491h18.67l14.846 10.996-.352 3.714-17.343-9.46-11.487 1.768-4.174-4.463-3.484 3.26 3.324-5.815zm27.597 88.43 2.542.795 14.801-47.221-2.24-14.938-.309.047 1.995-20.96L681.119.33h-28.104l-6.258 10.955-35.706 19.253-22.837 81 2.012 39.596-31.744 43.357 31.75 7.409 14.628-21.774-41.741 150.252-8.468 3.593-34.776 136.437-10.986 38.03h-.2l.004.677-.118.41.123-.025.699 81.708-3.063-.467-2.96 19.467 13.908 7.322 13.258-19.675-1.665-1.121 41.888-64.452.232.418 54.236-166.903.51-1.562-3.486-11.233.323.082 64.049-253.96z" fill="#000"/>
    </g>
</svg>
